<?xml version="1.0" standalone="no"?>
<!DOCTYPE svg PUBLIC "-//W3C//DTD SVG 1.1//EN" "http://www.w3.org/Graphics/SVG/1.1/DTD/svg11.dtd" >
<svg xmlns="http://www.w3.org/2000/svg">
<metadata>Generated by IcoMoon</metadata>
<defs>
<font id="lato-regular-webfont" horiz-adv-x="1024">
<font-face units-per-em="1024" ascent="960" descent="-64" />
<missing-glyph horiz-adv-x="1024" />
<glyph unicode="&#x20;" horiz-adv-x="256" d="" />
<glyph unicode="&#x21;" glyph-name="uni21" horiz-adv-x="275" d="M181.76 869.376v-292.864q0-23.040-1.024-45.056t-2.56-44.288-3.84-45.568-5.376-49.92h-61.44q-3.072 26.624-5.376 49.92t-3.84 45.568-2.56 44.288-1.024 45.056v292.864h87.040zM72.704 192q0 13.312 4.864 25.088t13.568 20.48 20.224 13.824 25.344 5.12q13.312 0 24.832-5.12t20.224-13.824 13.824-20.48 5.12-25.088q0-13.824-5.12-25.344t-13.824-20.224-20.224-13.568-24.832-4.864q-13.824 0-25.344 4.864t-20.224 13.568-13.568 20.224-4.864 25.344z" />
<glyph unicode="&#x22;" glyph-name="uni22" horiz-adv-x="379" d="M144.384 869.376v-148.48l-8.192-79.36q-2.56-16.384-9.472-25.344t-22.272-8.96q-13.824 0-21.248 8.96t-9.984 25.344l-8.192 79.36v148.48h79.36zM314.88 869.376v-148.48l-8.192-79.36q-2.56-16.384-9.472-25.344t-22.272-8.96q-13.824 0-21.248 8.96t-9.984 25.344l-8.192 79.36v148.48h79.36z" />
<glyph unicode="&#x23;" glyph-name="uni23" horiz-adv-x="594" d="M406.016 352.256l-43.008-216.576h-41.472q-6.656 0-12.288 3.072t-9.472 8.192-5.376 12.288 0 15.872l36.352 177.152h-126.464l-36.352-181.76q-3.072-18.944-14.848-26.88t-26.624-7.936h-40.96l43.52 216.576h-74.752q-14.336 0-20.736 8.448t-3.328 29.44l4.096 29.184h104.448l33.28 166.912h-118.784l6.656 37.888q2.56 14.848 12.032 22.016t28.928 7.168h80.896l36.864 183.296q3.072 15.36 14.080 24.064t26.368 8.704h40.96l-43.008-216.064h126.464l43.008 216.064h40.448q14.848 0 23.296-9.728t5.888-24.576l-37.376-181.76h108.544l-6.656-38.4q-2.56-14.848-12.032-21.76t-28.928-6.912h-70.656l-33.28-166.912h91.648q14.848 0 21.248-8.448t3.328-29.44l-4.608-29.184h-121.344zM214.016 419.328h126.464l33.28 166.912h-126.464z" />
<glyph unicode="&#x24;" glyph-name="uni24" horiz-adv-x="594" d="M250.88 129.536q-61.952 5.632-112.896 30.464t-87.808 63.232l27.648 41.984q4.096 5.632 10.24 9.216t13.312 3.584q9.728 0 22.016-9.728t30.208-22.272 42.752-24.32 59.648-15.872l18.944 271.872q-35.84 10.752-70.4 24.32t-61.952 35.328-44.032 54.784-16.64 82.688q0 37.376 14.592 72.96t42.752 63.232 69.12 45.312 93.696 19.712l5.12 73.728q0.512 9.728 7.424 17.408t18.176 7.68h33.792l-7.168-101.376q53.76-6.656 92.928-27.648t69.376-50.688l-22.016-33.792q-10.24-15.36-23.552-15.36-7.168 0-17.664 6.4t-25.088 14.848-34.304 16.896-44.8 12.032l-16.896-247.808q36.864-11.264 72.704-24.576t64.512-34.304 46.336-52.48 17.664-78.592q0-46.080-15.36-86.528t-44.8-71.168-72.192-49.92-97.536-22.272l-6.144-90.112q-0.512-9.728-7.68-17.152t-17.92-7.424h-33.792zM452.096 344.064q0 25.6-9.472 44.032t-25.856 31.744-38.4 23.040-47.104 17.92l-17.408-254.976q33.792 3.072 59.392 14.592t43.264 29.44 26.624 41.728 8.96 52.48zM167.936 684.032q0-24.576 8.704-42.752t24.064-32 35.84-24.064 44.544-18.432l15.36 230.912q-33.28-3.072-57.6-13.312t-39.936-25.6-23.296-34.56-7.68-40.192z" />
<glyph unicode="&#x25;" glyph-name="uni25" horiz-adv-x="821" d="M369.664 692.224q0-43.008-13.312-77.056t-35.584-57.344-51.712-35.584-62.208-12.288q-34.304 0-64 12.288t-51.456 35.584-34.048 57.344-12.288 77.056q0 44.032 12.288 78.336t34.048 57.856 51.456 35.84 64 12.288q34.816 0 64.512-12.288t51.712-35.84 34.304-57.856 12.288-78.336zM299.008 692.224q0 33.792-7.168 57.344t-19.712 38.656-29.44 21.76-35.84 6.656-35.328-6.656-28.672-21.76-19.456-38.656-7.168-57.344q0-33.28 7.168-56.576t19.456-37.888 28.672-20.992 35.328-6.4 35.84 6.4 29.44 20.992 19.712 37.888 7.168 56.576zM629.248 854.016q5.12 6.144 12.032 10.752t18.688 4.608h66.048l-536.576-718.848q-4.608-6.656-11.776-10.752t-17.408-4.096h-67.072zM775.68 308.736q0-43.008-13.312-76.8t-35.584-57.088-51.712-35.584-62.208-12.288q-34.816 0-64.256 12.288t-51.2 35.584-34.048 57.088-12.288 76.8q0 44.032 12.288 78.592t34.048 58.112 51.2 35.84 64.256 12.288q34.304 0 64.256-12.288t51.712-35.84 34.304-58.112 12.544-78.592zM705.024 308.736q0 33.792-7.168 57.6t-19.712 38.656-29.44 21.504-35.84 6.656-35.584-6.656-28.928-21.504-19.2-38.656-6.912-57.6q0-33.28 6.912-56.32t19.2-37.632 28.928-20.992 35.584-6.4 35.84 6.4 29.44 20.992 19.712 37.632 7.168 56.32z" />
<glyph unicode="&#x26;" glyph-name="uni26" horiz-adv-x="729" d="M341.504 877.568q40.448 0 73.728-13.056t57.344-34.56 38.144-49.92 16.128-59.136l-56.832-11.264q-16.896-4.096-25.088 15.872-3.584 13.312-11.52 27.648t-20.48 26.112-30.208 19.456-41.216 7.68q-25.6 0-46.336-8.192t-35.328-22.784-22.272-34.304-7.68-42.752q0-17.92 4.096-34.304t13.056-33.28 22.784-34.304 33.28-36.864l210.944-214.528q19.456 34.816 30.976 72.192t15.616 75.264q1.024 9.728 6.144 15.36t14.336 5.632h55.808q-0.512-58.88-18.688-115.456t-51.456-106.24l153.6-156.16h-88.576q-14.848 0-24.064 3.584t-19.968 14.848l-74.24 74.24q-48.128-46.592-110.848-73.728t-137.984-27.136q-40.96 0-80.128 13.824t-70.4 40.192-50.176 64.256-18.944 85.504q0 35.84 12.032 67.84t33.28 59.136 50.688 48.64 64.256 36.864q-31.744 39.424-46.336 76.8t-14.592 77.312q0 37.376 13.568 70.144t39.168 57.088 62.208 38.4 82.176 14.080zM280.576 201.728q57.344 0 102.912 20.992t80.384 55.808l-216.576 218.624q-54.272-29.184-81.664-69.888t-27.392-88.832q0-33.28 12.288-58.624t32.256-42.752 45.568-26.368 52.224-8.96z" />
<glyph unicode="&#x27;" glyph-name="uni27" horiz-adv-x="209" d="M144.384 869.376v-148.48l-8.192-79.36q-2.56-16.384-9.472-25.344t-22.272-8.96q-13.824 0-21.248 8.96t-9.984 25.344l-8.192 79.36v148.48h79.36z" />
<glyph unicode="&#x28;" glyph-name="uni28" horiz-adv-x="273" d="M125.44 457.728q0-109.568 27.904-212.992t81.664-196.608q8.192-15.872 4.096-24.32t-11.776-13.568l-40.448-24.576q-38.4 58.88-65.28 116.736t-43.52 116.224-24.32 117.504-7.68 121.6q0 61.952 7.68 121.344t24.32 117.504 43.52 115.968 65.28 117.248l40.448-25.088q7.68-5.12 11.776-13.568t-4.096-23.808q-53.76-93.184-81.664-196.608t-27.904-212.992z" />
<glyph unicode="&#x29;" glyph-name="uni29" horiz-adv-x="273" d="M147.968 457.728q0 109.568-27.904 212.992t-81.664 196.608q-4.096 7.68-5.12 13.568t0.512 10.24 4.864 7.68 7.424 5.888l40.448 25.088q38.4-59.392 65.28-117.248t43.52-115.968 24.32-117.504 7.68-121.344q0-62.464-7.68-121.6t-24.32-117.504-43.52-116.224-65.28-116.736l-40.448 24.576q-4.096 2.56-7.424 5.888t-4.864 7.68-0.512 10.496 5.12 13.824q53.76 93.184 81.664 196.608t27.904 212.992z" />
<glyph unicode="&#x2a;" glyph-name="uni2A" horiz-adv-x="435" d="M195.072 577.536v100.864q0 9.728 1.28 18.432t4.864 16.896q-10.24-12.8-27.136-23.040l-88.064-50.688-22.528 38.4 88.064 51.2q18.432 10.752 37.376 12.288-10.24 1.024-19.2 3.84t-18.176 8.96l-88.576 51.712 22.528 38.4 88.576-51.2q9.216-5.632 16.384-11.776t12.8-14.848q-4.608 9.216-6.4 18.688t-1.792 19.712v101.376h45.056v-100.864q0-20.992-7.168-36.864 5.632 7.68 12.544 13.312t15.616 11.264l88.064 50.688 22.528-38.4-88.064-51.2q-8.704-5.632-17.152-8.704t-17.664-4.096q9.216-1.024 17.664-3.84t17.152-8.448l88.576-51.712-22.528-38.4-88.576 51.2q-9.216 5.632-16.384 11.264t-12.8 13.824q8.192-16.896 8.192-36.864v-101.376h-45.056z" />
<glyph unicode="&#x2b;" glyph-name="uni2B" horiz-adv-x="594" d="M333.824 732.672v-218.624h208.896v-69.12h-208.896v-220.16h-74.24v220.16h-207.872v69.12h207.872v218.624h74.24z" />
<glyph unicode="&#x2c;" glyph-name="uni2C" horiz-adv-x="232" d="M54.784 198.656q0 24.064 16.64 40.96t44.288 16.896q15.36 0 27.136-5.632t19.712-15.616 12.032-23.040 4.096-28.416q0-23.040-6.4-47.872t-18.944-49.152-30.464-47.36-40.96-42.496l-15.36 14.848q-4.096 3.584-5.632 6.656t-1.536 7.68q0 3.584 2.304 7.168t5.376 6.656q5.12 5.632 13.056 15.104t16.128 21.76 15.104 27.136 9.984 31.744h-6.656q-26.624 0-43.264 17.664t-16.64 45.312z" />
<glyph unicode="&#x2d;" glyph-name="uni2D" horiz-adv-x="380" d="M64 481.28h252.928v-77.312h-252.928v77.312z" />
<glyph unicode="&#x2e;" glyph-name="uni2E" horiz-adv-x="242" d="M56.832 192q0 13.312 4.864 25.088t13.312 20.48 20.224 13.824 25.088 5.12 25.088-5.12 20.48-13.824 13.824-20.48 5.12-25.088q0-13.824-5.12-25.344t-13.824-20.224-20.48-13.568-25.088-4.864-25.088 4.864-20.224 13.568-13.312 20.224-4.864 25.344z" />
<glyph unicode="&#x2f;" glyph-name="uni2F" horiz-adv-x="463" d="M122.368 124.928q-6.656-17.92-20.736-26.624t-28.928-8.704h-38.4l307.712 766.464q6.144 16.384 18.688 25.088t28.928 8.704h38.912z" />
<glyph unicode="&#x30;" glyph-name="uni30" horiz-adv-x="594" d="M563.2 502.272q0-96.256-20.736-166.656t-56.576-116.48-84.736-68.608-104.704-22.528q-56.32 0-104.704 22.528t-84.224 68.608-56.32 116.48-20.48 166.656 20.48 166.912 56.32 116.992 84.224 68.864 104.704 22.528q55.808 0 104.704-22.528t84.736-68.864 56.576-116.992 20.736-166.912zM468.48 502.272q0 83.968-14.080 141.056t-37.888 91.904-55.040 49.92-65.024 15.104-65.024-15.104-54.784-49.92-37.632-91.904-14.080-141.056 14.080-140.8 37.632-91.648 54.784-49.92 65.024-15.104 65.024 15.104 55.040 49.92 37.888 91.648 14.080 140.8z" />
<glyph unicode="&#x31;" glyph-name="uni31" horiz-adv-x="594" d="M128 205.312h157.184v500.224q0 21.504 1.536 45.568l-130.56-112.128q-6.656-5.632-13.312-6.912t-12.288-0.256-10.496 4.096-7.424 6.656l-28.672 39.424 218.624 188.928h74.24v-665.6h144.384v-69.632h-393.216v69.632z" />
<glyph unicode="&#x32;" glyph-name="uni32" horiz-adv-x="594" d="M302.592 877.568q46.592 0 87.040-13.824t70.144-40.192 46.592-64.256 16.896-86.016q0-40.96-12.288-76.032t-33.28-66.816-48.384-61.952-58.112-60.928l-193.536-197.632q20.48 5.632 41.472 8.96t40.448 3.328h245.76q14.848 0 23.552-8.704t8.704-22.528v-55.296h-489.472v31.232q0 9.728 4.096 19.968t12.8 18.944l235.008 236.032q29.184 29.696 53.248 57.088t40.96 55.040 26.112 56.064 9.216 60.672-10.24 56.576-27.904 40.192-41.728 23.808-51.712 7.936q-28.16 0-51.712-8.192t-41.728-22.784-30.464-34.56-17.408-44.032q-6.144-17.92-16.64-23.808t-29.44-3.328l-47.616 8.192q7.168 50.176 27.904 88.832t52.224 64.768 71.936 39.68 87.552 13.568z" />
<glyph unicode="&#x33;" glyph-name="uni33" horiz-adv-x="594" d="M306.176 877.568q46.592 0 86.016-13.312t67.84-37.888 44.288-59.392 15.872-77.312q0-34.816-8.96-62.208t-25.6-48.128-40.192-35.072-52.736-23.040q71.68-18.944 107.776-63.488t36.096-111.616q0-50.688-19.2-91.136t-52.48-68.864-77.568-43.52-94.976-15.104q-58.368 0-99.84 14.592t-70.144 40.192-47.104 60.672-31.232 76.032l39.424 16.384q15.36 6.656 29.952 3.584t21.248-16.896q6.656-14.336 16.64-34.304t27.392-38.4 44.288-31.232 68.352-12.8q38.4 0 67.328 12.544t48.128 32.512 28.928 44.544 9.728 48.64q0 29.696-7.68 54.272t-28.672 42.496-57.6 28.16-93.952 10.24v66.048q47.104 0.512 80.128 10.24t53.76 26.624 30.208 40.448 9.472 52.224q0 31.744-9.984 55.296t-27.392 38.912-41.216 23.040-51.456 7.68-51.456-8.192-41.984-22.784-30.464-34.56-17.408-44.032q-6.656-17.92-16.64-23.808t-28.928-3.328l-47.616 8.192q7.168 50.176 27.648 88.832t51.968 64.768 72.192 39.68 87.808 13.568z" />
<glyph unicode="&#x34;" glyph-name="uni34" horiz-adv-x="594" d="M453.632 400.384h111.104v-52.224q0-8.192-4.864-13.824t-15.104-5.632h-91.136v-193.024h-79.872v193.024h-325.632q-10.24 0-17.664 5.888t-9.472 14.592l-9.216 46.592 356.864 473.6h84.992v-468.992zM373.76 702.976q0 13.312 0.768 28.928t3.328 32l-267.264-363.52h263.168v302.592z" />
<glyph unicode="&#x35;" glyph-name="uni35" horiz-adv-x="594" d="M502.784 829.44q0-19.456-12.032-32t-41.216-12.544h-230.4l-33.792-192.512q29.184 6.656 55.040 9.472t50.432 2.816q57.344 0 101.376-16.896t73.472-46.592 44.544-70.144 15.104-88.064q0-58.368-20.224-105.472t-55.808-80.64-83.712-51.456-103.936-17.92q-32.256 0-61.952 6.4t-55.552 17.152-47.872 24.576-38.912 29.184l28.16 38.912q9.216 13.312 24.064 13.312 10.24 0 23.040-7.936t31.232-17.664 43.264-17.664 59.136-7.936q38.4 0 69.12 12.288t52.736 35.072 33.792 54.528 11.776 71.168q0 34.304-9.984 61.952t-30.208 47.104-50.432 30.208-70.656 10.752q-27.648 0-57.6-4.608t-61.184-14.848l-57.344 16.896 58.88 343.040h347.648v-39.936z" />
<glyph unicode="&#x36;" glyph-name="uni36" horiz-adv-x="594" d="M242.688 594.432q-10.24-12.288-18.944-24.064t-17.408-23.040q26.112 17.92 57.6 27.904t68.352 9.984q44.544 0 83.968-14.592t68.864-42.496 46.848-68.608 17.408-92.928q0-50.688-18.432-94.208t-51.456-75.776-79.36-50.688-102.144-18.432q-55.296 0-100.352 17.664t-76.544 50.176-48.64 78.848-17.152 103.68q0 48.128 21.248 102.656t67.84 116.48l186.368 250.368q7.168 9.216 19.712 15.616t28.928 6.4h80.896zM142.848 361.984q0-35.328 10.24-64.512t29.952-50.176 48.128-32.512 64.768-11.52q36.864 0 66.816 11.776t51.2 32.768 32.768 49.664 11.52 62.464q0 35.84-11.264 64.768t-32 49.152-49.408 30.976-62.976 10.752q-36.864 0-66.56-12.544t-50.432-33.792-31.744-49.152-11.008-58.112z" />
<glyph unicode="&#x37;" glyph-name="uni37" horiz-adv-x="594" d="M553.472 869.376v-40.96q0-17.408-3.84-28.672t-7.424-18.944l-304.128-612.864q-6.656-13.312-18.432-22.784t-31.232-9.472h-65.536l308.224 605.184q6.656 12.8 13.568 23.552t15.616 20.48h-382.976q-8.704 0-15.36 6.912t-6.656 15.616v61.952h498.176z" />
<glyph unicode="&#x38;" glyph-name="uni38" horiz-adv-x="594" d="M296.96 127.488q-54.784 0-100.352 14.592t-78.336 41.728-50.688 65.792-17.92 86.784q0 70.656 36.864 116.48t105.472 65.28q-57.856 21.504-87.296 64.256t-29.44 102.144q0 40.448 15.872 75.776t45.056 61.44 69.888 40.96 90.88 14.848q49.664 0 90.624-14.848t70.144-40.96 45.056-61.44 15.872-75.776q0-59.392-29.696-102.144t-87.040-64.256q68.608-19.456 105.472-65.28t36.864-116.48q0-48.128-18.176-86.784t-50.688-65.792-78.080-41.728-100.352-14.592zM296.96 200.192q35.84 0 64.256 9.984t48.128 28.16 30.208 43.52 10.496 56.064q0 37.888-12.544 64.768t-33.792 43.776-48.896 24.832-57.856 7.936-57.856-7.936-48.896-24.832-33.792-43.776-12.544-64.768q0-30.72 10.496-56.064t30.208-43.52 48.128-28.16 64.256-9.984zM296.96 552.448q35.84 0 61.184 11.008t41.216 29.184 23.040 41.728 7.168 48.64q0 25.6-8.448 48.128t-25.088 39.424-41.472 26.624-57.6 9.728-57.6-9.728-41.472-26.624-25.088-39.424-8.448-48.128q0-25.088 7.168-48.64t23.040-41.728 41.216-29.184 61.184-11.008z" />
<glyph unicode="&#x39;" glyph-name="uni39" horiz-adv-x="594" d="M357.888 428.032q11.264 14.848 20.992 28.16t18.432 26.624q-28.16-22.528-63.488-34.304t-74.752-11.776q-41.472 0-78.592 13.824t-65.28 40.704-44.8 66.048-16.64 89.856q0 48.128 17.92 90.112t50.176 73.216 76.8 49.152 97.792 17.92q52.736 0 95.744-17.408t73.728-48.64 47.36-74.752 16.64-96.256q0-31.744-5.888-60.16t-16.896-55.808-26.88-54.272-35.84-55.040l-178.688-258.048q-6.656-9.728-18.944-15.616t-28.16-5.888h-83.968zM442.368 651.264q0 34.304-11.008 62.208t-30.464 47.36-46.336 29.952-59.136 10.496q-33.792 0-61.44-11.008t-47.616-30.464-30.72-46.592-10.752-59.392q0-34.816 9.984-62.208t28.672-46.336 45.568-28.672 60.16-9.728q36.864 0 65.28 12.032t47.872 32 29.696 46.080 10.24 54.272z" />
<glyph unicode="&#x3a;" glyph-name="uni3A" horiz-adv-x="256" d="M64 192q0 13.312 4.864 25.088t13.312 20.48 20.224 13.824 25.088 5.12 25.088-5.12 20.48-13.824 13.824-20.48 5.12-25.088q0-13.824-5.12-25.344t-13.824-20.224-20.48-13.568-25.088-4.864-25.088 4.864-20.224 13.568-13.312 20.224-4.864 25.344zM64 576q0 13.312 4.864 25.088t13.312 20.48 20.224 13.824 25.088 5.12 25.088-5.12 20.48-13.824 13.824-20.48 5.12-25.088q0-13.824-5.12-25.344t-13.824-20.224-20.48-13.568-25.088-4.864-25.088 4.864-20.224 13.568-13.312 20.224-4.864 25.344z" />
<glyph unicode="&#x3b;" glyph-name="uni3B" horiz-adv-x="268" d="M72.192 198.656q0 24.064 16.64 40.96t44.288 16.896q15.36 0 27.136-5.632t19.712-15.616 12.032-23.040 4.096-28.416q0-23.040-6.4-47.872t-18.944-49.152-30.464-47.36-40.96-42.496l-15.36 14.848q-4.096 3.584-5.632 6.656t-1.536 7.68q0 3.584 2.304 7.168t5.376 6.656q5.12 5.632 13.056 15.104t16.128 21.76 15.104 27.136 9.984 31.744h-6.656q-26.624 0-43.264 17.664t-16.64 45.312zM69.632 576q0 13.312 4.864 25.088t13.312 20.48 20.224 13.824 25.088 5.12 25.088-5.12 20.48-13.824 13.824-20.48 5.12-25.088q0-13.824-5.12-25.344t-13.824-20.224-20.48-13.568-25.088-4.864-25.088 4.864-20.224 13.568-13.312 20.224-4.864 25.344z" />
<glyph unicode="&#x3c;" glyph-name="uni3C" horiz-adv-x="594" d="M82.944 499.2l395.776 205.312v-65.024q0-8.704-4.096-15.104t-14.336-11.52l-229.888-116.736q-10.24-5.632-21.76-9.472t-24.32-6.912q12.8-2.56 24.32-6.656t21.76-9.216l229.888-116.224q10.24-5.12 14.336-11.776t4.096-14.848v-65.536l-395.776 205.824v37.888z" />
<glyph unicode="&#x3d;" glyph-name="uni3D" horiz-adv-x="594" d="M76.8 429.568h440.32v-69.12h-440.32v69.12zM76.8 601.088h440.32v-69.12h-440.32v69.12z" />
<glyph unicode="&#x3e;" glyph-name="uni3E" horiz-adv-x="594" d="M115.2 255.488v65.536q0 8.192 4.096 14.848t14.336 11.776l229.888 116.224q10.24 5.12 21.504 9.216t24.064 6.656q-12.8 3.072-24.064 6.912t-21.504 9.472l-229.888 116.736q-10.24 5.12-14.336 11.52t-4.096 15.104v65.024l395.776-205.312v-37.888z" />
<glyph unicode="&#x3f;" glyph-name="uni3F" horiz-adv-x="458" d="M41.472 803.84q15.872 14.848 35.072 28.16t41.984 23.552 49.152 16.128 57.088 5.888q40.448 0 75.008-11.776t59.648-33.28 39.424-52.224 14.336-69.12q0-38.912-11.52-67.072t-29.184-49.408-38.4-36.864-39.168-29.44-31.488-27.648-15.104-30.72l-9.216-78.336h-62.464l-6.144 84.992q-2.048 23.040 8.704 40.192t28.16 32.256 38.4 29.696 39.168 32.512 30.464 40.704 12.288 54.528q0 22.016-8.704 39.936t-23.552 30.464-35.072 19.2-43.264 6.656q-31.232 0-53.504-7.68t-37.632-16.896-24.832-16.896-15.616-7.68q-12.8 0-19.968 11.776zM141.312 192q0 13.312 4.864 25.088t13.312 20.48 20.224 13.824 25.088 5.12 25.088-5.12 20.48-13.824 13.824-20.48 5.12-25.088q0-13.824-5.12-25.344t-13.824-20.224-20.48-13.568-25.088-4.864-25.088 4.864-20.224 13.568-13.312 20.224-4.864 25.344z" />
<glyph unicode="&#x40;" glyph-name="uni40" horiz-adv-x="857" d="M606.72 230.912q-39.424 0-64.512 18.944t-32.256 58.88q-29.696-40.96-64.512-58.88t-74.752-17.92q-30.208 0-52.992 10.496t-37.632 29.184-22.272 44.288-7.424 55.296q0 43.52 16.64 87.808t49.408 79.872 81.408 58.112 112.64 22.528q34.304 0 60.416-5.376t49.152-15.616l-48.128-184.832q-10.24-38.912-9.728-63.232t7.936-38.144 20.736-18.688 29.184-4.864q25.088 0 47.616 14.336t39.68 40.448 27.136 62.72 9.984 81.152q0 70.656-22.528 123.904t-62.208 88.832-93.696 53.248-116.48 17.664q-68.608 0-128.512-26.112t-104.448-72.192-70.4-109.056-25.856-137.216q0-87.040 27.392-152.832t74.752-110.336 111.36-67.072 137.216-22.528q77.824 0 137.472 16.896t103.168 43.008q10.24 6.144 17.92 3.84t11.264-11.52l13.312-33.792q-55.296-36.864-125.184-57.856t-157.952-20.992q-89.088 0-165.376 28.16t-132.352 81.152-88.064 129.792-32 174.080q0 55.808 14.080 107.52t39.68 96.512 61.44 81.92 79.872 63.488 94.976 40.96 106.24 14.592q47.104 0 92.16-10.24t85.248-30.208 73.728-49.408 58.112-67.584 38.144-84.992 13.568-101.632q0-55.296-15.616-102.144t-43.008-81.152-64.768-53.76-80.384-19.456zM388.608 292.352q15.872 0 32 5.12t31.232 17.92 27.904 34.816 21.504 55.296l38.912 151.040q-19.968 4.608-44.032 4.608-38.4 0-70.4-16.128t-55.040-42.24-36.096-59.904-13.056-69.12q0-36.864 16.896-59.136t50.176-22.272z" />
<glyph unicode="&#x41;" glyph-name="uni41" horiz-adv-x="693" d="M690.176 135.68h-76.8q-13.312 0-21.504 6.656t-12.288 16.896l-68.608 177.152h-329.216l-68.608-177.152q-3.072-9.216-11.776-16.384t-21.504-7.168h-76.8l293.376 733.696h100.352zM209.408 408.064h273.92l-115.2 298.496q-5.632 13.312-11.008 30.72t-11.008 37.376q-5.12-19.968-10.496-37.632t-11.008-30.976z" />
<glyph unicode="&#x42;" glyph-name="uni42" horiz-adv-x="662" d="M93.696 135.68v733.696h233.984q67.584 0 116.48-13.312t80.384-37.888 46.336-60.16 14.848-80.128q0-27.136-8.448-52.224t-25.344-46.592-42.752-38.4-60.672-27.648q80.384-15.872 121.344-57.856t40.96-110.592q0-46.592-17.152-84.992t-50.176-66.048-81.152-42.752-109.568-15.104h-259.072zM192.512 470.016v-255.488h158.72q42.496 0 73.216 9.728t50.432 27.392 28.928 41.984 9.216 53.504q0 56.832-40.448 89.856t-121.344 33.024h-158.72zM192.512 540.672h131.072q41.984 0 72.96 9.216t51.2 25.6 29.952 39.68 9.728 50.944q0 65.024-38.912 94.976t-120.832 29.952h-135.168v-250.368z" />
<glyph unicode="&#x43;" glyph-name="uni43" horiz-adv-x="684" d="M608.768 287.232q8.192 0 14.336-6.656l39.424-42.496q-45.056-52.224-109.312-81.408t-155.392-29.184q-78.848 0-143.36 27.392t-110.080 76.8-70.656 118.528-25.088 152.064 26.112 152.064 73.472 118.784 113.408 77.056 145.92 27.392q78.336 0 138.24-25.088t105.472-68.096l-32.768-45.568q-3.072-5.12-7.936-8.448t-13.056-3.328q-9.216 0-22.528 9.984t-34.816 22.272-53.76 22.272-79.36 9.984q-56.832 0-103.936-19.712t-81.152-57.088-52.992-91.136-18.944-121.344q0-68.608 19.712-122.368t53.76-90.88 80.384-56.576 100.096-19.456q32.768 0 59.136 3.84t48.64 12.032 41.472 20.736 38.144 29.952q8.704 7.68 17.408 7.68z" />
<glyph unicode="&#x44;" glyph-name="uni44" horiz-adv-x="779" d="M729.6 502.272q0-82.432-26.112-150.016t-73.728-115.712-114.432-74.496-147.712-26.368h-273.92v733.696h273.92q80.896 0 147.712-26.368t114.432-74.752 73.728-115.968 26.112-150.016zM627.712 502.272q0 67.584-18.432 120.832t-52.224 90.112-81.92 56.32-107.52 19.456h-174.592v-572.928h174.592q59.392 0 107.52 19.456t81.92 56.064 52.224 89.856 18.432 120.832z" />
<glyph unicode="&#x45;" glyph-name="uni45" horiz-adv-x="591" d="M545.792 869.376v-80.896h-352.768v-243.712h285.696v-77.824h-285.696v-250.368h353.28l-0.512-80.896h-452.096v733.696h452.096z" />
<glyph unicode="&#x46;" glyph-name="uni46" horiz-adv-x="579" d="M545.792 869.376v-80.896h-352.768v-256.512h301.568v-80.896h-301.568v-315.392h-99.328v733.696h452.096z" />
<glyph unicode="&#x47;" glyph-name="uni47" horiz-adv-x="748" d="M689.664 206.848q-55.296-39.936-118.016-59.648t-137.472-19.712q-88.576 0-159.744 27.392t-121.6 76.8-77.568 118.528-27.136 152.064q0 83.968 26.368 153.088t75.008 118.528 118.272 76.544 155.648 27.136q43.52 0 80.896-6.4t69.12-18.432 58.88-29.184 50.688-38.656l-28.16-45.056q-6.656-10.24-17.152-13.056t-23.296 4.864q-12.288 7.168-28.16 17.408t-38.656 19.712-53.76 16.128-73.472 6.656q-61.952 0-112.128-20.224t-85.504-57.856-54.272-91.136-18.944-120.064q0-69.12 19.712-123.648t56.32-92.672 88.832-58.112 117.248-19.968q25.6 0 47.872 3.072t42.752 8.448 39.424 13.312 38.4 18.176v161.792h-114.176q-9.728 0-15.616 5.632t-5.888 13.824v56.32h225.28v-281.6z" />
<glyph unicode="&#x48;" glyph-name="uni48" horiz-adv-x="782" d="M688.128 135.68h-99.328v333.824h-395.776v-333.824h-99.328v733.696h99.328v-327.168h395.776v327.168h99.328v-733.696z" />
<glyph unicode="&#x49;" glyph-name="uni49" horiz-adv-x="287" d="M193.024 135.68h-99.328v733.696h99.328v-733.696z" />
<glyph unicode="&#x4a;" glyph-name="uni4A" horiz-adv-x="433" d="M346.624 389.12q0-61.44-15.104-110.080t-44.544-82.176-72.448-51.456-98.816-17.92q-50.688 0-103.424 14.336l5.12 58.368q1.024 8.704 6.4 14.080t16.64 5.376q9.216 0 24.32-4.608t40.704-4.608q33.792 0 60.416 10.24t44.544 31.744 27.392 55.040 9.472 79.616v482.304h99.328v-480.256z" />
<glyph unicode="&#x4b;" glyph-name="uni4B" horiz-adv-x="678" d="M192.512 547.84h37.376q19.456 0 31.232 4.864t21.504 16.64l244.224 276.48q10.24 13.312 21.504 18.432t27.648 5.12h83.968l-279.552-315.904q-10.24-12.288-19.712-20.224t-20.224-13.056q13.824-4.608 25.088-13.568t22.016-23.296l291.84-347.648h-86.016q-9.728 0-16.64 1.28t-12.032 4.096-8.96 6.656-7.424 8.96l-252.928 291.328q-10.24 12.8-22.016 18.176t-35.84 5.376h-45.056v-335.872h-98.816v733.696h98.816v-321.536z" />
<glyph unicode="&#x4c;" glyph-name="uni4C" horiz-adv-x="526" d="M192.512 219.136h317.44v-83.456h-416.256v733.696h98.816v-650.24z" />
<glyph unicode="&#x4d;" glyph-name="uni4D" horiz-adv-x="951" d="M454.656 400.896q6.144-12.288 11.776-25.856t11.264-26.88q5.12 13.824 10.752 27.392t12.288 25.856l248.832 451.072q6.144 11.776 13.568 14.336t20.736 2.56h73.216v-733.696h-87.040v539.136q0 10.752 0.512 23.040t1.536 25.088l-251.392-458.752q-11.776-23.040-35.84-23.040h-14.336q-24.064 0-35.84 23.040l-257.024 460.288q1.536-13.312 2.304-26.112t0.768-23.552v-539.136h-87.040v733.696h73.216q13.312 0 20.48-2.56t13.824-14.336l253.44-451.584z" />
<glyph unicode="&#x4e;" glyph-name="uni4E" horiz-adv-x="782" d="M144.896 869.376q6.656 0 11.264-0.768t8.192-2.56 7.168-5.12 7.68-8.448l424.448-552.448q-1.024 13.312-1.792 25.856t-0.768 23.808v519.68h87.040v-733.696h-49.664q-11.776 0-19.712 4.096t-15.616 13.824l-424.448 552.448q1.024-12.8 1.536-25.088t0.512-22.528v-522.752h-87.040v733.696h51.2z" />
<glyph unicode="&#x4f;" glyph-name="uni4F" horiz-adv-x="820" d="M771.584 502.272q0-82.432-26.112-151.296t-73.728-118.528-114.432-77.056-147.712-27.392-147.456 27.392-114.176 77.056-73.728 118.528-26.112 151.296 26.112 151.296 73.728 118.784 114.176 77.568 147.456 27.648 147.712-27.648 114.432-77.568 73.728-118.784 26.112-151.296zM669.696 502.272q0 67.584-18.432 121.344t-52.224 90.88-81.92 57.088-107.52 19.968q-58.88 0-107.008-19.968t-82.176-57.088-52.48-90.88-18.432-121.344 18.432-121.088 52.48-90.624 82.176-56.832 107.008-19.712q59.392 0 107.52 19.712t81.92 56.832 52.224 90.624 18.432 121.088z" />
<glyph unicode="&#x50;" glyph-name="uni50" horiz-adv-x="615" d="M192.512 410.112v-274.432h-98.816v733.696h216.576q69.632 0 121.088-16.128t85.248-45.824 50.432-71.68 16.64-93.696q0-51.2-17.92-93.696t-52.48-73.216-85.504-47.872-117.504-17.152h-117.76zM192.512 488.96h117.76q42.496 0 75.008 11.264t54.784 31.488 33.536 48.384 11.264 61.952q0 70.144-43.264 109.568t-131.328 39.424h-117.76v-302.080z" />
<glyph unicode="&#x51;" glyph-name="uni51" horiz-adv-x="820" d="M772.096 502.272q0-51.712-10.496-98.56t-30.464-86.784-48.64-72.704-64.512-56.832l187.904-203.264h-81.92q-18.432 0-32.768 5.12t-26.112 17.92l-128.512 140.288q-29.184-9.216-60.672-14.336t-65.792-5.12q-80.896 0-147.456 27.392t-114.176 77.056-73.728 118.528-26.112 151.296 26.112 151.296 73.728 118.784 114.176 77.568 147.456 27.648 147.712-27.648 114.432-77.568 73.728-118.784 26.112-151.296zM670.208 502.272q0 67.584-18.432 121.344t-52.224 90.88-81.92 57.088-107.52 19.968q-58.88 0-107.008-19.968t-82.176-57.088-52.48-90.88-18.432-121.344 18.432-121.088 52.48-90.624 82.176-56.832 107.008-19.712q59.392 0 107.52 19.712t81.92 56.832 52.224 90.624 18.432 121.088z" />
<glyph unicode="&#x52;" glyph-name="uni52" horiz-adv-x="642" d="M192.512 441.856v-306.176h-98.816v733.696h207.36q69.632 0 120.32-14.080t83.712-40.704 48.896-64.256 15.872-84.224q0-38.912-12.288-72.704t-35.584-60.672-56.832-46.080-76.032-28.416q19.456-12.288 32.768-31.232l214.016-291.328h-88.064q-27.136 0-39.936 20.992l-190.464 262.144q-8.704 12.288-18.688 17.664t-30.976 5.376h-75.264zM192.512 514.048h104.448q43.008 0 76.032 10.496t55.296 29.696 33.536 45.824 11.264 58.88q0 65.536-43.008 98.816t-129.024 33.28h-108.544v-276.992z" />
<glyph unicode="&#x53;" glyph-name="uni53" horiz-adv-x="556" d="M468.992 754.688q-4.608-7.68-9.984-11.52t-13.056-3.84q-8.704 0-20.48 8.704t-29.44 19.2-42.496 19.2-60.16 8.704q-33.28 0-58.624-8.96t-42.496-24.32-25.856-36.096-8.704-44.8q0-30.72 15.104-50.944t39.936-34.56 56.32-24.832 64.512-21.76 64.512-25.344 56.32-35.584 39.936-52.736 15.104-76.8q0-48.128-16.384-90.368t-47.872-73.472-77.312-49.152-104.192-17.92q-71.68 0-130.048 25.856t-99.84 69.888l28.672 47.104q4.096 5.632 9.984 9.472t13.056 3.84q6.656 0 15.104-5.376t19.2-13.568 24.576-17.92 31.488-17.92 40.192-13.568 50.688-5.376q35.328 0 62.976 9.728t46.848 27.392 29.44 42.24 10.24 54.784q0 33.28-15.104 54.528t-39.68 35.584-56.32 24.32-64.512 20.48-64.512 24.32-56.32 35.84-39.68 55.040-15.104 81.664q0 38.912 15.104 75.264t44.032 64.512 71.168 45.056 97.024 16.896q61.44 0 111.872-19.456t88.832-56.32z" />
<glyph unicode="&#x54;" glyph-name="uni54" horiz-adv-x="605" d="M589.824 869.376v-83.456h-237.568v-650.24h-98.816v650.24h-238.080v83.456h574.464z" />
<glyph unicode="&#x55;" glyph-name="uni55" horiz-adv-x="753" d="M376.832 214.528q45.568 0 81.408 15.36t60.672 43.008 37.888 66.048 13.056 84.48v445.952h98.816v-445.952q0-63.488-20.224-117.76t-57.856-93.952-91.904-62.208-121.856-22.528-121.856 22.528-92.16 62.208-58.112 93.952-20.224 117.76v445.952h98.816v-445.44q0-46.080 13.056-84.48t37.888-66.048 60.928-43.264 81.664-15.616z" />
<glyph unicode="&#x56;" glyph-name="uni56" horiz-adv-x="693" d="M3.072 869.376h79.36q13.312 0 21.504-6.656t12.288-16.896l206.848-517.632q6.656-17.408 12.8-37.888t11.776-42.496q4.608 22.016 10.496 42.496t12.544 37.888l206.336 517.632q3.072 8.704 12.032 16.128t21.76 7.424h79.36l-299.008-733.696h-89.088z" />
<glyph unicode="&#x57;" glyph-name="uni57" horiz-adv-x="1060" d="M15.872 869.376h82.432q13.312 0 22.272-6.656t11.52-16.896l151.552-509.952q3.584-13.824 6.912-29.696t6.4-33.28q3.584 17.408 7.424 33.536t8.448 29.44l172.544 509.952q3.072 8.704 12.032 16.128t21.76 7.424h28.672q13.312 0 21.504-6.656t12.288-16.896l172.032-509.952q4.608-13.312 8.448-28.672t6.912-31.744q3.072 16.384 6.144 31.744t6.656 28.672l152.064 509.952q2.56 9.216 11.52 16.384t21.76 7.168h77.312l-228.864-733.696h-89.088l-185.856 559.616q-5.632 15.872-10.24 36.864-2.56-10.24-4.864-19.712t-4.864-17.152l-186.88-559.616h-89.088z" />
<glyph unicode="&#x58;" glyph-name="uni58" horiz-adv-x="665" d="M262.656 512.512l-242.176 356.864h98.816q10.752 0 15.872-3.584t9.216-10.24l191.488-293.888q3.584 10.752 10.752 23.552l180.736 268.288q4.096 7.168 9.728 11.52t13.312 4.352h94.72l-243.2-352.256 251.392-381.44h-98.304q-11.264 0-17.664 5.888t-10.496 13.056l-196.608 307.712q-3.584-10.752-9.216-20.48l-191.488-287.232q-5.12-7.168-11.008-13.056t-16.128-5.888h-92.16z" />
<glyph unicode="&#x59;" glyph-name="uni59" horiz-adv-x="639" d="M369.152 428.032v-292.352h-99.328v292.352l-268.8 441.344h87.040q13.312 0 20.992-6.4t13.312-16.64l167.936-285.184q9.216-17.92 16.64-33.536t13.056-30.976q5.632 15.36 12.8 30.976t16.384 33.536l167.424 285.184q4.608 8.704 12.8 15.872t20.992 7.168h87.552z" />
<glyph unicode="&#x5a;" glyph-name="uni5A" horiz-adv-x="616" d="M583.168 869.376v-36.864q0-16.896-10.24-32.768l-415.744-583.168h419.84v-80.896h-549.888v38.912q0 8.192 2.816 15.36t6.912 13.824l415.744 584.704h-406.016v80.896h536.576z" />
<glyph unicode="&#x5b;" glyph-name="uni5B" horiz-adv-x="313" d="M93.184-12.288v932.864h188.416v-35.84q0-10.24-6.912-17.152t-18.176-6.912h-86.528v-812.544h86.528q11.264 0 18.176-7.168t6.912-17.408v-35.84h-188.416z" />
<glyph unicode="&#x5c;" glyph-name="uni5C" horiz-adv-x="463" d="M34.304 889.856h38.912q16.384 0 28.928-8.704t18.688-25.088l307.712-766.464h-38.4q-14.848 0-29.184 8.704t-20.48 26.624z" />
<glyph unicode="&#x5d;" glyph-name="uni5D" horiz-adv-x="313" d="M31.744 23.552q0 10.24 6.912 17.408t18.176 7.168h86.528v812.544h-86.528q-11.264 0-18.176 6.912t-6.912 17.152v35.84h188.416v-932.864h-188.416v35.84z" />
<glyph unicode="&#x5e;" glyph-name="uni5E" horiz-adv-x="594" d="M526.336 492.032h-66.56q-8.704 0-15.104 4.864t-9.984 12.544l-117.76 226.816q-13.312 27.136-20.48 49.664-3.584-11.776-8.192-24.064t-10.24-25.6l-114.176-226.816q-3.072-7.168-9.728-12.288t-16.896-5.12h-69.632l198.656 377.344h58.88z" />
<glyph unicode="&#x5f;" glyph-name="uni5F" horiz-adv-x="470" d="M436.736 51.2v-61.44h-403.456v61.44h403.456z" />
<glyph unicode="&#x60;" glyph-name="uni60" d="M153.6 877.568q16.896 0 25.088-5.376t15.36-17.152l76.288-123.904h-52.224q-10.752 0-17.408 3.328t-13.824 11.008l-119.808 132.096h86.528z" />
<glyph unicode="&#x61;" glyph-name="uni61" horiz-adv-x="509" d="M401.92 135.68q-13.312 0-20.48 4.352t-11.264 17.152l-10.24 48.64q-20.48-18.432-40.192-33.024t-40.96-24.576-45.568-15.36-54.016-5.376q-30.208 0-56.832 8.448t-46.336 25.344-31.232 42.752-11.52 61.184q0 30.72 16.896 59.136t54.784 50.432 98.816 36.096 149.504 16.128v40.448q0 60.416-26.112 91.392t-76.288 30.976q-33.792 0-56.576-8.448t-39.424-18.944-28.672-18.944-23.808-8.448q-9.216 0-15.872 4.864t-11.264 12.032l-16.384 29.184q43.008 41.472 92.672 61.952t110.080 20.48q43.52 0 77.312-14.336t56.832-39.936 34.816-61.952 11.776-79.872v-331.776h-40.448zM206.336 191.488q24.064 0 44.032 4.864t37.632 13.824 33.792 22.016 31.488 29.44v107.52q-62.976-2.048-107.264-9.984t-72.192-20.736-40.448-30.208-12.544-38.912q0-20.48 6.656-35.328t18.176-24.32 27.136-13.824 33.536-4.352z" />
<glyph unicode="&#x62;" glyph-name="uni62" horiz-adv-x="573" d="M72.192 135.68v754.176h91.648v-310.784q32.256 38.4 73.728 60.928t95.232 22.528q45.568 0 82.176-17.408t62.208-50.432 39.168-80.128 13.568-105.984q0-62.976-15.36-114.688t-44.288-88.32-70.4-56.832-93.184-20.224q-51.2 0-86.272 19.2t-61.184 54.528l-4.608-47.104q-4.096-19.456-23.552-19.456h-58.88zM302.592 589.824q-44.544 0-77.824-20.48t-60.928-57.856v-250.88q25.088-33.792 55.040-47.616t65.792-13.824q73.216 0 112.128 51.712t38.912 154.112q0 95.232-34.56 140.032t-98.56 44.8z" />
<glyph unicode="&#x63;" glyph-name="uni63" horiz-adv-x="489" d="M433.152 562.176q-4.096-5.632-8.192-8.704t-11.264-3.072q-7.68 0-16.896 6.4t-22.784 14.080-33.28 14.080-48.384 6.4q-38.4 0-67.584-13.568t-48.896-39.168-29.696-61.952-9.984-81.408q0-47.104 10.752-83.712t30.464-61.44 47.616-37.888 62.72-13.056q33.28 0 54.784 7.936t35.584 17.664 23.552 17.664 18.688 7.936q11.264 0 17.408-8.704l25.6-33.28q-16.896-20.992-38.4-35.84t-46.336-24.832-51.968-14.592-55.296-4.608q-48.64 0-90.368 17.92t-72.448 51.968-48.128 83.712-17.408 113.152q0 57.856 16.128 107.008t47.104 84.736 76.288 55.552 104.192 19.968q54.784 0 96.512-17.664t73.984-49.92z" />
<glyph unicode="&#x64;" glyph-name="uni64" horiz-adv-x="573" d="M446.976 135.68q-19.456 0-24.576 18.944l-8.192 62.976q-33.28-40.448-76.032-64.768t-98.048-24.32q-44.544 0-80.896 17.152t-61.952 50.432-39.424 82.944-13.824 114.176q0 57.344 15.36 106.752t44.032 85.76 70.4 57.088 93.952 20.736q47.616 0 81.664-16.128t60.672-45.312v287.744h91.136v-754.176h-54.272zM269.824 202.24q45.056 0 78.592 20.48t61.696 57.856v250.368q-25.6 33.792-55.296 47.616t-66.56 13.824q-72.192 0-111.104-51.712t-38.912-147.456q0-50.688 8.704-86.784t25.6-59.392 41.472-34.048 55.808-10.752z" />
<glyph unicode="&#x65;" glyph-name="uni65" horiz-adv-x="541" d="M284.672 662.528q46.592 0 86.272-15.616t68.608-45.056 45.312-72.704 16.384-98.56q0-21.504-4.608-28.672t-17.408-7.168h-346.624q1.024-49.152 13.312-85.504t33.792-60.672 51.2-36.352 66.56-12.032q34.304 0 59.136 7.936t42.752 17.152 29.952 17.152 20.736 7.936q11.264 0 17.408-8.704l25.6-33.28q-16.896-20.48-40.448-35.584t-50.432-24.832-55.552-14.592-56.832-4.864q-53.76 0-99.072 18.176t-78.336 53.248-51.456 86.784-18.432 118.784q0 54.272 16.64 101.376t47.872 81.664 76.288 54.272 101.376 19.712zM286.72 595.456q-66.048 0-103.936-38.144t-47.104-105.728h283.648q0 31.744-8.96 58.112t-26.112 45.568-41.728 29.696-55.808 10.496z" />
<glyph unicode="&#x66;" glyph-name="uni66" horiz-adv-x="359" d="M105.984 135.68v440.832l-57.344 6.656q-10.752 2.56-17.664 7.936t-6.912 15.616v37.376h81.92v50.176q0 44.544 12.544 79.104t35.84 58.368 56.064 36.096 73.728 12.288q34.816 0 64-10.24l-2.048-45.568q-1.024-12.288-13.568-13.312t-33.536-1.024q-23.552 0-42.752-6.144t-33.024-19.968-21.248-36.352-7.424-55.808v-47.616h149.504v-66.048h-146.432v-442.368h-91.648z" />
<glyph unicode="&#x67;" glyph-name="uni67" horiz-adv-x="532" d="M252.928 663.040q33.792 0 62.976-7.424t53.248-21.76h140.8v-33.792q0-16.896-21.504-21.504l-58.88-8.192q17.408-33.28 17.408-74.24 0-37.888-14.592-68.864t-40.192-52.992-61.44-33.792-77.824-11.776q-36.864 0-69.12 8.704-16.384-10.24-24.832-22.016t-8.448-23.040q0-18.432 15.104-27.904t39.68-13.568 56.064-5.12 64.512-3.328 64.512-7.936 56.064-18.432 39.68-35.328 15.104-58.368q0-33.28-16.64-64.512t-47.872-55.552-76.544-38.912-102.144-14.592-99.328 11.264-70.656 30.208-42.24 43.776-14.080 51.968q0 38.4 24.064 65.024t65.536 42.496q-23.040 10.24-36.352 27.392t-13.312 46.336q0 11.264 4.096 23.296t12.544 23.808 20.736 22.528 28.672 18.944q-38.4 21.504-59.904 57.344t-21.504 82.944q0 37.888 14.592 68.864t40.704 52.736 62.208 33.536 79.104 11.776zM417.28 107.52q0 18.944-10.752 30.72t-28.928 18.432-42.24 9.472-50.944 4.352-54.528 3.072-53.248 5.12q-28.672-13.312-46.848-33.28t-18.176-47.616q0-17.408 8.96-32.512t27.392-26.112 46.336-17.408 65.792-6.4q36.864 0 66.048 6.656t49.408 18.944 30.976 29.184 10.752 37.376zM252.928 389.12q27.648 0 48.64 7.68t35.328 21.504 21.504 33.024 7.168 42.24q0 47.616-28.928 75.776t-83.712 28.16q-55.296 0-84.224-28.16t-28.928-75.776q0-23.040 7.424-42.24t21.76-33.024 35.328-21.504 48.64-7.68z" />
<glyph unicode="&#x68;" glyph-name="uni68" horiz-adv-x="571" d="M72.192 135.68v754.176h91.648v-305.152q33.28 35.328 73.728 56.576t93.184 21.248q42.496 0 75.008-14.080t54.272-39.936 33.024-62.208 11.264-80.384v-330.24h-91.648v330.24q0 58.88-26.88 91.392t-81.664 32.512q-40.96 0-76.032-19.456t-64.256-52.736v-381.952h-91.648z" />
<glyph unicode="&#x69;" glyph-name="uni69" horiz-adv-x="246" d="M168.448 654.336v-518.656h-91.136v518.656h91.136zM187.904 817.152q0-13.312-5.376-24.832t-14.336-20.48-20.992-14.080-25.344-5.12-24.832 5.12-20.224 14.080-13.824 20.48-5.12 24.832 5.12 25.344 13.824 20.992 20.224 14.080 24.832 5.12 25.344-5.12 20.992-14.080 14.336-20.992 5.376-25.344z" />
<glyph unicode="&#x6a;" glyph-name="uni6A" horiz-adv-x="246" d="M168.448 654.336v-557.056q0-31.232-8.192-58.112t-26.112-46.848-45.824-31.488-66.816-11.52q-16.384 0-30.208 2.56t-27.648 7.68l3.584 49.152q1.024 4.608 3.328 6.912t6.4 2.816 10.496 0.256 16.128-0.256q39.936 0 56.832 18.688t16.896 60.16v557.056h91.136zM187.392 817.152q0-13.312-5.376-24.832t-14.336-20.48-20.736-14.080-25.088-5.12-24.832 5.12-20.224 14.080-13.824 20.48-5.12 24.832 5.12 25.344 13.824 20.992 20.224 14.080 24.832 5.12 25.088-5.12 20.736-14.080 14.336-20.992 5.376-25.344z" />
<glyph unicode="&#x6b;" glyph-name="uni6B" horiz-adv-x="520" d="M163.84 889.856v-443.904h23.552q10.24 0 17.152 2.816t14.592 11.52l163.84 175.616q7.168 8.704 15.104 13.568t21.248 4.864h82.432l-190.976-203.264q-13.824-17.408-29.696-27.136 9.216-6.144 16.64-14.080t14.080-18.176l202.752-256h-81.408q-11.776 0-20.224 3.84t-14.592 14.080l-170.496 212.48q-7.68 10.752-15.104 14.080t-22.784 3.328h-26.112v-247.808h-91.648v754.176h91.648z" />
<glyph unicode="&#x6c;" glyph-name="uni6C" horiz-adv-x="242" d="M166.4 889.856v-754.176h-91.136v754.176h91.136z" />
<glyph unicode="&#x6d;" glyph-name="uni6D" horiz-adv-x="842" d="M72.192 135.68v518.656h54.784q19.456 0 24.064-18.944l6.656-53.248q28.672 35.328 64.512 57.856t82.944 22.528q52.224 0 84.736-29.184t46.848-78.848q11.264 28.16 28.928 48.64t39.68 33.792 46.848 19.456 50.432 6.144q40.96 0 72.96-13.056t54.272-38.144 34.048-61.696 11.776-83.712v-330.24h-91.648v330.24q0 60.928-26.624 92.416t-76.8 31.488q-22.528 0-42.752-7.936t-35.584-23.296-24.32-38.656-8.96-54.016v-330.24h-91.648v330.24q0 62.464-25.088 93.184t-73.216 30.72q-33.792 0-62.464-18.176t-52.736-49.408v-386.56h-91.648z" />
<glyph unicode="&#x6e;" glyph-name="uni6E" horiz-adv-x="571" d="M72.192 135.68v518.656h54.784q19.456 0 24.064-18.944l7.168-56.32q33.792 37.376 75.776 60.416t96.768 23.040q42.496 0 75.008-14.080t54.272-39.936 33.024-62.208 11.264-80.384v-330.24h-91.648v330.24q0 58.88-26.88 91.392t-81.664 32.512q-40.96 0-76.032-19.456t-64.256-52.736v-381.952h-91.648z" />
<glyph unicode="&#x6f;" glyph-name="uni6F" horiz-adv-x="581" d="M290.816 662.528q56.832 0 102.4-18.944t77.824-53.76 49.408-84.224 17.152-110.336q0-61.44-17.152-110.592t-49.408-83.968-77.824-53.504-102.4-18.688q-57.344 0-103.168 18.688t-78.080 53.504-49.408 83.968-17.152 110.592q0 60.928 17.152 110.336t49.408 84.224 78.080 53.76 103.168 18.944zM290.816 199.68q76.8 0 114.688 51.456t37.888 143.616q0 92.672-37.888 144.384t-114.688 51.712q-38.912 0-67.84-13.312t-48.128-38.4-28.672-61.696-9.472-82.688q0-92.16 38.144-143.616t115.968-51.456z" />
<glyph unicode="&#x70;" glyph-name="uni70" horiz-adv-x="574" d="M72.192-39.936v694.272h54.784q19.456 0 24.064-18.944l7.68-61.44q33.28 40.448 76.288 65.024t98.304 24.576q45.056 0 81.408-17.152t61.952-50.688 39.424-83.2 13.824-114.176q0-57.344-15.36-106.752t-44.288-85.504-70.656-56.832-93.952-20.736q-47.616 0-81.664 15.872t-60.16 45.056v-229.376h-91.648zM303.616 589.824q-44.544 0-78.080-20.48t-61.696-57.856v-250.88q24.576-33.792 54.528-47.616t66.816-13.824q72.704 0 111.616 51.712t38.912 147.456q0 50.688-8.96 87.040t-25.856 59.648-41.472 34.048-55.808 10.752z" />
<glyph unicode="&#x71;" glyph-name="uni71" horiz-adv-x="573" d="M501.248 654.336v-694.272h-91.136v252.416q-32.768-37.888-74.496-60.928t-95.488-23.040q-44.544 0-80.896 17.152t-61.952 50.432-39.424 82.944-13.824 114.176q0 57.344 15.36 106.752t44.032 85.76 70.4 57.088 93.952 20.736q50.688 0 85.76-17.92t62.72-50.688l6.144 40.448q5.12 18.944 24.576 18.944h54.272zM269.824 202.24q45.056 0 78.592 20.48t61.696 57.856v250.88q-24.576 32.768-54.784 46.848t-67.072 14.080q-72.192 0-111.104-51.712t-38.912-147.456q0-50.688 8.704-86.784t25.6-59.392 41.472-34.048 55.808-10.752z" />
<glyph unicode="&#x72;" glyph-name="uni72" horiz-adv-x="373" d="M72.192 135.68v518.656h52.224q14.848 0 20.48-5.632t7.68-19.456l5.632-78.848q24.576 53.248 60.672 83.2t87.808 29.952q16.384 0 31.488-3.584t26.88-11.264l-6.656-68.096q-3.072-12.8-15.36-12.8-7.168 0-20.992 3.072t-31.232 3.072q-24.576 0-44.032-7.424t-34.56-21.504-26.88-34.56-21.504-47.104v-327.68h-91.648z" />
<glyph unicode="&#x73;" glyph-name="uni73" horiz-adv-x="443" d="M374.272 568.832q-6.144-11.264-18.944-11.264-7.68 0-17.408 5.632t-23.808 12.544-33.536 12.8-46.080 5.888q-23.040 0-41.472-5.888t-31.488-16.128-19.968-23.808-6.912-29.44q0-19.968 11.52-33.28t30.464-23.040 43.008-17.152 49.408-15.872 49.408-18.688 43.008-25.6 30.464-37.632 11.52-53.504q0-35.84-12.8-66.304t-37.888-52.736-61.44-35.072-83.968-12.8q-54.272 0-98.304 17.664t-74.752 45.312l21.504 34.816q4.096 6.656 9.728 10.24t14.336 3.584q9.216 0 19.456-7.168t24.832-15.872 35.584-15.872 52.224-7.168q26.624 0 46.592 6.912t33.28 18.688 19.712 27.136 6.4 32.768q0 21.504-11.52 35.584t-30.464 24.064-43.264 17.408-49.664 15.616-49.664 18.688-43.264 26.368-30.464 39.168-11.52 56.576q0 29.696 12.288 57.088t35.84 48.128 57.856 33.024 78.336 12.288q51.2 0 91.904-16.128t70.4-44.288z" />
<glyph unicode="&#x74;" glyph-name="uni74" horiz-adv-x="367" d="M231.424 127.488q-61.44 0-94.464 34.304t-33.024 98.816v317.44h-62.464q-8.192 0-13.824 4.864t-5.632 15.104v36.352l84.992 10.752 20.992 160.256q1.536 7.68 6.912 12.544t14.080 4.864h46.080v-178.688h150.016v-66.048h-150.016v-311.296q0-32.768 15.872-48.64t40.96-15.872q14.336 0 24.832 3.84t18.176 8.448 13.056 8.448 9.472 3.84q7.168 0 12.8-8.704l26.624-43.52q-23.552-22.016-56.832-34.56t-68.608-12.544z" />
<glyph unicode="&#x75;" glyph-name="uni75" horiz-adv-x="571" d="M158.208 654.336v-330.752q0-58.88 26.88-91.136t82.176-32.256q39.936 0 75.264 18.944t65.024 52.736v382.464h91.136v-518.656h-54.272q-19.456 0-24.576 18.944l-7.168 55.808q-33.792-37.376-75.776-60.16t-96.256-22.784q-42.496 0-75.008 14.080t-54.528 39.68-33.024 61.952-11.008 80.384v330.752h91.136z" />
<glyph unicode="&#x76;" glyph-name="uni76" horiz-adv-x="528" d="M11.776 654.336h74.24q11.264 0 18.432-5.632t9.728-13.312l131.584-333.824q6.144-18.944 10.752-36.864t8.704-35.84q4.096 17.92 8.704 35.84t11.264 36.864l133.12 333.824q3.072 8.192 10.24 13.568t16.896 5.376h71.168l-211.456-518.656h-81.92z" />
<glyph unicode="&#x77;" glyph-name="uni77" horiz-adv-x="804" d="M16.896 654.336h71.68q10.752 0 18.176-5.632t9.984-13.312l99.328-333.824q4.096-17.92 7.68-35.072t6.144-34.048q4.096 16.896 9.216 34.048t10.752 35.072l109.568 335.872q2.56 7.68 8.96 12.8t15.616 5.12h39.936q10.24 0 16.896-5.12t9.216-12.8l107.008-335.872q5.12-17.92 9.728-35.328t8.704-34.304q3.072 16.896 6.912 34.048t8.448 35.584l101.376 333.824q2.56 8.192 9.728 13.568t16.896 5.376h68.608l-167.936-518.656h-72.192q-13.312 0-18.432 17.408l-114.688 351.744q-4.096 11.776-6.656 23.808t-5.12 23.808q-2.56-11.776-5.376-24.064t-6.4-24.064l-116.736-351.232q-4.608-17.408-20.48-17.408h-68.608z" />
<glyph unicode="&#x78;" glyph-name="uni78" horiz-adv-x="510" d="M193.536 401.408l-174.592 252.928h87.552q11.264 0 16.384-3.584t9.216-10.24l126.976-194.56q4.608 14.336 13.312 28.672l111.616 163.84q4.608 7.168 9.984 11.52t13.056 4.352h83.968l-174.592-247.808 181.76-270.848h-87.552q-11.264 0-17.664 5.888t-10.496 13.056l-130.56 203.264q-3.584-14.848-10.752-26.624l-120.832-176.64q-5.12-7.168-11.008-13.056t-16.128-5.888h-81.408z" />
<glyph unicode="&#x79;" glyph-name="uni79" horiz-adv-x="528" d="M230.4-17.408q-4.608-10.24-11.52-16.384t-21.248-6.144h-67.584l94.72 205.824-214.016 488.448h78.848q11.776 0 18.688-5.888t9.472-13.056l138.752-326.656q4.096-11.776 7.68-22.784t6.144-22.784q6.656 23.040 15.36 46.080l134.656 326.144q3.072 8.192 10.496 13.568t16.64 5.376h72.192z" />
<glyph unicode="&#x7a;" glyph-name="uni7A" horiz-adv-x="463" d="M430.080 615.424q0-9.728-3.328-18.944t-8.96-15.872l-281.088-373.76h283.648v-71.168h-390.656v37.888q0 6.656 3.072 15.616t9.216 17.152l282.624 376.32h-279.040v71.68h384.512v-38.912z" />
<glyph unicode="&#x7b;" glyph-name="uni7B" horiz-adv-x="308" d="M104.448 353.28q0 32.256-17.92 52.992t-51.712 20.736v54.784q33.792 0 51.712 20.48t17.92 53.248q0 25.6-4.096 50.688t-8.704 50.176-8.704 50.688-4.096 52.224q0 35.328 10.496 65.024t31.744 51.2 52.736 33.28 72.96 11.776h27.648v-40.448q0-10.24-7.168-14.848t-13.312-4.608h-10.24q-39.936 0-62.464-25.856t-22.528-69.888q0-28.672 3.584-55.296t8.192-51.968 8.192-50.432 3.584-50.688q0-19.456-5.632-36.096t-16.128-29.696-24.576-22.528-30.976-14.080q16.896-4.608 30.976-14.080t24.576-22.784 16.128-29.696 5.632-35.328q0-25.6-3.584-50.688t-8.192-50.432-8.192-51.968-3.584-55.296q0-44.544 22.528-70.144t62.464-25.6h10.24q6.144 0 13.312-4.608t7.168-14.848v-40.96h-27.648q-41.472 0-72.96 12.032t-52.736 33.536-31.744 51.2-10.496 65.024q0 26.624 4.096 51.968t8.704 50.688 8.704 50.432 4.096 50.688z" />
<glyph unicode="&#x7c;" glyph-name="uni7C" horiz-adv-x="257" d="M92.672 920.576h71.168v-963.584h-71.168v963.584z" />
<glyph unicode="&#x7d;" glyph-name="uni7D" horiz-adv-x="308" d="M203.776 353.28q0-25.6 4.096-50.688t8.704-50.432 8.704-50.688 4.096-51.968q0-35.328-10.496-65.024t-31.744-51.2-52.736-33.536-72.96-12.032h-27.648v40.96q0 10.24 7.424 14.848t13.056 4.608h10.24q39.936 0 62.464 25.6t22.528 70.144q0 28.672-3.584 55.296t-8.192 51.968-8.192 50.432-3.584 50.688q0 18.944 5.632 35.328t16.128 29.696 24.576 22.784 30.976 14.080q-16.896 4.608-30.976 14.080t-24.576 22.528-16.128 29.696-5.632 36.096q0 25.6 3.584 50.688t8.192 50.432 8.192 51.968 3.584 55.296q0 44.032-22.528 69.888t-62.464 25.856h-10.24q-5.632 0-13.056 4.608t-7.424 14.848v40.448h27.648q41.472 0 72.96-11.776t52.736-33.28 31.744-51.2 10.496-65.024q0-26.624-4.096-52.224t-8.704-50.688-8.704-50.176-4.096-50.688q0-32.768 17.92-53.248t51.712-20.48v-54.784q-33.792 0-51.712-20.736t-17.92-52.992z" />
<glyph unicode="&#x7e;" glyph-name="uni7E" horiz-adv-x="594" d="M390.656 449.536q33.28 0 51.968 21.76t19.2 57.6h73.728q0-34.304-9.472-62.976t-27.136-49.152-43.776-31.744-58.88-11.264q-26.624 0-52.736 8.192t-50.432 18.176-46.336 18.432-40.448 8.448q-33.28 0-51.968-21.504t-19.2-57.856h-73.728q0 34.304 9.472 62.976t27.136 49.152 43.52 32 59.136 11.52q26.624 0 52.736-8.448t50.432-18.432 46.336-18.432 40.448-8.448z" />
<glyph unicode="&#xa1;" glyph-name="uniA1" horiz-adv-x="258" d="M86.016-39.936v276.992q0 23.040 1.024 44.8t2.56 44.032 3.84 45.824 5.376 50.176h61.44q3.072-26.624 5.376-50.176t3.84-45.824 2.56-44.032 1.024-44.8v-276.992h-87.040zM64 598.528q0 13.824 4.864 25.344t13.568 20.224 20.224 13.568 25.344 4.864q13.312 0 24.832-4.864t20.224-13.568 13.824-20.224 5.12-25.344q0-13.312-5.12-25.088t-13.824-20.48-20.224-13.824-24.832-5.12q-13.824 0-25.344 5.12t-20.224 13.824-13.568 20.48-4.864 25.088z" />
<glyph unicode="&#xa2;" glyph-name="uniA2" horiz-adv-x="594" d="M287.744 130.048q-47.104 5.12-86.784 25.344t-68.608 54.016-45.056 80.384-16.128 104.96q0 56.832 16.896 104.704t49.152 83.2 79.36 56.064 108.032 22.272l6.656 91.648q1.024 10.24 7.68 17.664t17.408 7.424h34.304l-8.192-119.296q41.984-6.144 75.52-22.272t61.184-41.216l-23.552-31.744q-4.096-5.632-7.936-8.448t-11.008-2.816q-6.144 0-14.336 4.352t-19.968 10.496-27.648 12.288-37.376 9.728l-27.136-390.144q32.256 2.048 54.016 9.984t36.864 16.64 24.832 15.872 17.92 7.168q5.632 0 10.24-2.304t7.168-5.888l25.088-32.256q-30.72-36.352-78.336-55.552t-102.4-22.784l-6.144-89.6q-1.024-9.728-7.68-17.152t-17.92-7.424h-33.792zM161.792 394.752q0-82.432 34.56-131.84t96.512-61.184l27.136 389.12q-78.336-5.632-118.272-57.344t-39.936-138.752z" />
<glyph unicode="&#xa3;" glyph-name="uniA3" horiz-adv-x="594" d="M24.576 479.744q0 13.312 8.192 22.528t23.040 9.216h68.608v133.632q0 48.128 13.824 90.368t41.984 73.728 69.888 49.664 98.048 18.176q39.936 0 71.168-9.984t55.296-27.392 41.728-40.448 29.952-49.664l-36.864-23.552q-13.312-6.656-24.832-5.632t-21.76 12.8q-9.728 13.824-20.224 25.6t-23.808 20.736-30.464 14.080-40.192 5.12q-32.256 0-56.576-10.752t-40.704-30.72-24.576-48.128-8.192-62.976v-134.656h225.28v-36.864q0-9.216-7.424-16.896t-19.2-7.68h-198.656v-124.416q0-38.4-14.592-66.304t-40.192-50.944q14.336 2.56 29.184 4.352t29.696 1.792h346.624v-38.912q0-7.168-2.816-14.080t-8.192-12.8-12.544-9.472-16.384-3.584h-493.568v58.88q17.408 5.12 33.536 13.824t28.416 21.76 19.712 30.72 7.424 41.216v147.968h-99.84v29.696z" />
<glyph unicode="&#xa4;" glyph-name="uniA4" horiz-adv-x="594" d="M114.176 479.744q0 29.184 8.448 55.040t23.296 48.384l-78.336 78.336 46.592 46.080 77.312-77.824q22.528 15.872 49.152 24.576t56.32 8.704q29.184 0 55.296-8.448t48.128-23.808l78.336 78.336 45.568-46.592-77.312-77.824q15.872-22.528 24.576-48.896t8.704-56.064q0-29.184-8.448-55.296t-23.296-48.128l77.824-77.312-46.592-47.104-77.824 77.824q-22.528-15.36-49.152-24.064t-55.808-8.704-55.040 8.448-48.384 23.296l-78.336-78.336-45.568 46.592 77.312 77.824q-15.36 22.528-24.064 48.896t-8.704 56.064zM181.76 479.744q0-23.552 8.96-44.288t24.832-36.352 36.608-24.832 44.8-9.216 45.312 9.216 36.864 24.832 24.832 36.352 9.216 44.288q0 24.064-9.216 45.056t-24.832 36.864-36.864 24.832-45.312 8.96-44.8-8.96-36.608-24.832-24.832-36.864-8.96-45.056z" />
<glyph unicode="&#xa5;" glyph-name="uniA5" horiz-adv-x="594" d="M76.8 455.68h157.184l-208.896 413.696h75.776q13.312 0 21.76-6.4t12.544-16.64l141.824-289.792q7.168-17.408 12.032-32.256t8.448-29.696q3.584 14.848 8.192 29.696t11.776 32.256l141.312 289.792q4.096 8.704 12.544 15.872t21.248 7.168h76.288l-209.408-413.696h157.696v-52.224h-174.592v-53.76h174.592v-52.736h-174.592v-161.28h-91.136v161.28h-174.592v52.736h174.592v53.76h-174.592v52.224z" />
<glyph unicode="&#xa6;" glyph-name="uniA6" horiz-adv-x="260" d="M94.208 920.576h71.168v-406.528h-71.168v406.528zM94.208 367.104h71.168v-407.040h-71.168v407.040z" />
<glyph unicode="&#xa7;" glyph-name="uniA7" horiz-adv-x="507" d="M412.16 783.36q-7.168-11.264-18.944-11.264-7.68 0-17.664 5.632t-24.064 12.544-33.536 12.8-46.080 5.888q-24.576 0-44.032-6.4t-33.28-17.152-20.992-25.088-7.168-30.208q0-19.456 12.544-34.048t32.768-26.624 46.336-23.040 52.992-22.784 52.992-25.856 46.336-32.256 32.768-41.728 12.544-54.784q0-41.472-19.968-73.984t-62.976-51.968q25.088-18.944 40.96-44.032t15.872-60.416q0-35.84-12.8-66.304t-37.632-52.736-61.44-35.072-83.712-12.8q-54.272 0-98.304 17.664t-74.752 45.312l21.504 34.816q4.096 6.656 9.728 10.24t14.336 3.584q9.216 0 19.456-7.168t25.344-16.128 36.608-16.128 53.76-7.168q26.112 0 46.336 6.4t34.048 17.92 20.992 27.392 7.168 35.328q0 23.040-12.8 39.936t-33.792 29.952-47.872 23.808-54.784 22.016-54.784 24.32-47.872 30.976-33.792 41.728-12.8 56.576q0 39.936 22.016 71.936t69.632 49.92q-25.6 19.456-41.728 46.336t-16.128 65.28q0 29.696 12.288 57.088t35.84 47.872 58.112 32.768 78.592 12.288q50.688 0 91.392-15.872t70.4-44.032zM132.608 507.392q0-26.112 17.92-44.288t45.824-33.024 61.696-28.16 65.536-29.184q27.648 13.312 39.936 32.512t12.288 43.264q0 18.432-7.68 32.768t-20.992 26.112-31.232 21.504-38.144 18.688-41.728 17.92-41.984 19.2q-33.792-15.36-47.616-34.048t-13.824-43.264z" />
<glyph unicode="&#xa8;" glyph-name="uniA8" d="M164.864 795.648q0-11.776-4.608-22.016t-12.8-17.92-18.688-12.288-22.272-4.608q-11.264 0-21.504 4.608t-18.176 12.288-12.544 17.92-4.608 22.016 4.608 22.528 12.544 18.688 18.176 12.544 21.504 4.608q11.776 0 22.272-4.608t18.688-12.544 12.8-18.688 4.608-22.528zM359.936 795.648q0-11.776-4.608-22.016t-12.544-17.92-18.432-12.288-22.272-4.608-22.272 4.608-18.176 12.288-12.288 17.92-4.608 22.016 4.608 22.528 12.288 18.688 18.176 12.544 22.272 4.608 22.272-4.608 18.432-12.544 12.544-18.688 4.608-22.528z" />
<glyph unicode="&#xa9;" glyph-name="uniA9" horiz-adv-x="851" d="M556.544 378.368q7.68 0.512 13.824-5.632l30.72-32.768q-29.184-33.792-71.424-52.48t-101.632-18.688q-50.176 0-91.392 17.408t-70.656 48.64-45.568 74.24-16.128 94.208q0 51.712 17.408 94.976t48.64 74.24 73.984 48.128 92.928 17.152q55.808 0 94.464-17.152t67.84-45.824l-23.552-33.28q-2.56-3.072-6.656-6.144t-9.728-3.072q-7.168 0-15.104 5.632t-20.736 12.544-32.512 12.8-49.408 5.888q-36.352 0-65.024-11.52t-49.152-33.024-31.232-52.224-10.752-69.12q0-39.424 11.008-70.4t30.464-51.968 46.336-32 58.624-11.008q26.624 0 44.544 4.096t31.488 9.984 24.576 13.056 23.808 13.312zM51.712 502.272q0 51.712 13.312 99.584t37.888 89.6 58.624 75.776 75.52 58.624 89.088 37.888 99.328 13.312 99.584-13.312 89.344-37.888 75.776-58.624 58.624-75.776 37.632-89.6 13.312-99.584q0-51.2-13.312-99.072t-37.632-89.344-58.624-75.52-75.776-58.624-89.344-37.888-99.584-13.312-99.328 13.312-89.088 37.888-75.52 58.624-58.624 75.52-37.888 89.088-13.312 99.328zM103.424 502.272q0-45.568 11.264-87.552t32-78.592 50.176-66.304 65.024-50.944 77.056-32.768 86.528-11.52 86.784 11.52 77.824 32.768 65.536 50.944 50.432 66.304 32.512 78.592 11.52 87.552q0 68.608-25.344 128.768t-69.12 104.96-103.168 70.656-126.976 25.856q-45.056 0-86.528-11.776t-77.056-33.024-65.024-51.456-50.176-66.816-32-79.104-11.264-88.064z" />
<glyph unicode="&#xaa;" glyph-name="uniAA" horiz-adv-x="376" d="M278.528 565.76q-9.216 0-13.824 2.816t-8.704 12.032l-6.656 24.576q-12.288-10.752-24.064-18.944t-24.32-13.824-27.136-8.448-32-2.816q-19.456 0-35.84 5.12t-28.672 15.616-19.2 25.856-6.912 36.352q0 17.408 9.728 34.56t32.256 30.72 59.392 22.528 91.648 9.984v18.944h65.024v-195.072h-30.72zM244.224 760.832q0 32.256-14.592 47.616t-43.776 15.36q-19.456 0-32.512-4.608t-22.528-9.984-16.896-9.728-15.616-4.352q-7.168 0-11.776 4.096t-7.68 8.704l-11.264 21.504q26.112 25.088 57.344 36.864t68.608 11.776q27.648 0 49.152-8.704t36.352-24.064 22.528-36.864 7.68-47.616h-65.024zM162.304 608.256q26.112 0 45.056 9.472t36.864 27.392v54.272q-35.84-1.024-60.672-5.376t-40.192-11.264-22.016-15.872-6.656-19.712q0-21.504 13.568-30.208t34.048-8.704z" />
<glyph unicode="&#xab;" glyph-name="uniAB" horiz-adv-x="439" d="M51.2 400.896v11.776l127.488 199.168 29.696-14.336q11.776-5.632 14.080-16.128t-4.864-22.272l-80.896-133.632q-7.168-12.288-14.336-18.944 7.68-7.168 14.336-18.432l80.896-133.632q7.168-11.776 4.864-22.272t-14.080-16.128l-29.696-14.336zM202.752 400.896v11.776l127.488 199.168 29.696-14.336q11.776-5.632 14.080-16.128t-4.864-22.272l-80.896-133.632q-7.168-12.288-14.336-18.944 7.68-7.168 14.336-18.432l80.896-133.632q7.168-11.776 4.864-22.272t-14.080-16.128l-29.696-14.336z" />
<glyph unicode="&#xac;" glyph-name="uniAC" horiz-adv-x="594" d="M75.776 514.048h440.32v-217.088h-77.312v147.968h-363.008v69.12z" />
<glyph unicode="&#xad;" glyph-name="uniAD" horiz-adv-x="380" d="M64 481.28h252.928v-77.312h-252.928v77.312z" />
<glyph unicode="&#xae;" glyph-name="uniAE" horiz-adv-x="851" d="M51.712 502.272q0 51.712 13.312 99.584t37.888 89.6 58.624 75.776 75.52 58.624 89.088 37.888 99.328 13.312 99.584-13.312 89.344-37.888 75.776-58.624 58.624-75.776 37.632-89.6 13.312-99.584q0-51.2-13.312-99.072t-37.632-89.344-58.624-75.52-75.776-58.624-89.344-37.888-99.584-13.312-99.328 13.312-89.088 37.888-75.52 58.624-58.624 75.52-37.888 89.088-13.312 99.328zM103.424 502.272q0-45.568 11.264-87.552t32-78.592 50.176-66.304 65.024-50.944 77.056-32.768 86.528-11.52 86.784 11.52 77.824 32.768 65.536 50.944 50.432 66.304 32.512 78.592 11.52 87.552q0 68.608-25.344 128.768t-69.12 104.96-103.168 70.656-126.976 25.856q-45.056 0-86.528-11.776t-77.056-33.024-65.024-51.456-50.176-66.816-32-79.104-11.264-88.064zM352.256 456.192v-181.248h-79.872v456.704h146.944q88.576 0 130.816-32t42.24-94.464q0-48.128-27.136-81.92t-81.408-46.592q8.704-5.12 15.104-12.8t12.032-17.92l116.736-171.008h-76.288q-16.896 0-24.576 12.8l-103.424 154.624q-4.608 6.656-11.008 10.24t-19.712 3.584h-40.448zM352.256 514.56h58.88q56.832 0 79.872 20.736t23.040 59.648q0 18.944-4.864 33.28t-15.872 23.552-29.184 13.824-44.8 4.608h-67.072v-155.648z" />
<glyph unicode="&#xaf;" glyph-name="uniAF" d="M57.856 825.856h293.888v-59.904h-293.888v59.904z" />
<glyph unicode="&#xb0;" glyph-name="uniB0" horiz-adv-x="424" d="M45.568 713.216q0 34.304 12.8 64.512t35.328 52.48 52.736 35.072 65.536 12.8 65.792-12.8 52.992-35.072 35.584-52.48 13.056-64.512q0-33.792-13.056-63.744t-35.584-52.224-52.992-35.328-65.792-13.056-65.536 13.056-52.736 35.328-35.328 52.224-12.8 63.744zM110.080 712.704q0-21.504 7.68-40.192t21.504-32.512 32.512-21.76 40.192-7.936 40.192 7.936 32.512 21.76 21.504 32.512 7.68 40.192-7.68 40.448-21.504 33.024-32.512 22.016-40.192 7.936-40.192-7.936-32.512-22.016-21.504-33.024-7.68-40.448z" />
<glyph unicode="&#xb1;" glyph-name="uniB1" horiz-adv-x="594" d="M333.824 751.104v-192.512h208.384v-69.632h-208.384v-188.416h-74.752v188.416h-207.36v69.632h207.36v192.512h74.752zM51.712 245.76h490.496v-69.12h-490.496v69.12z" />
<glyph unicode="&#xb2;" glyph-name="uniB2" horiz-adv-x="342" d="M173.568 973.824q26.624 0 48.384-7.68t37.12-21.504 23.808-33.536 8.448-43.776q0-20.48-6.4-38.144t-17.152-33.536-24.576-30.72-29.184-30.208l-83.456-84.992q11.776 3.584 24.064 5.632t23.040 2.048h99.84q10.24 0 16.128-5.632t5.888-15.872v-39.424h-261.632v22.016q0 6.656 2.816 13.824t8.96 13.312l113.152 112.128q25.6 25.6 43.264 52.736t17.664 54.784q0 26.112-15.36 40.192t-37.888 14.080q-24.064 0-38.4-12.288t-21.504-33.792q-5.12-9.216-11.776-12.8t-19.968-1.536l-36.352 6.144q7.68 54.272 43.008 81.408t88.064 27.136z" />
<glyph unicode="&#xb3;" glyph-name="uniB3" horiz-adv-x="342" d="M174.592 973.824q26.112 0 47.104-7.424t36.096-20.48 23.296-30.464 8.192-37.888q0-65.536-60.928-88.576 33.792-9.728 51.456-29.696t17.664-51.712q0-28.16-10.752-49.664t-28.416-36.096-40.96-22.016-47.872-7.424q-29.184 0-50.688 6.4t-37.12 18.944-26.624 30.976-18.688 42.496l28.16 12.288q11.264 4.608 21.248 2.304t14.080-11.008q2.56-5.12 6.656-13.056t11.52-15.616 18.944-13.056 28.928-5.376q15.872 0 27.904 5.12t20.224 13.056 12.288 18.176 4.096 20.992q0 15.36-4.352 26.368t-14.336 18.176-26.624 10.752-40.704 3.584v44.544q44.544 0.512 62.72 15.872t18.176 41.984q0 25.6-14.848 38.912t-39.424 13.312-39.168-12.032-20.736-32.512q-5.12-10.24-10.752-13.568t-18.944-1.28l-34.304 6.144q3.584 27.136 14.848 47.36t27.904 33.792 38.144 20.48 46.592 6.912z" />
<glyph unicode="&#xb4;" glyph-name="uniB4" d="M353.792 877.568l-119.296-132.096q-7.168-7.68-14.080-11.008t-17.664-3.328h-54.272l75.776 123.904q7.168 11.776 15.616 17.152t24.832 5.376h89.088z" />
<glyph unicode="&#xb5;" glyph-name="uniB5" horiz-adv-x="665" d="M183.808 654.336v-313.856q0-58.368 26.88-92.416t81.664-34.048q47.104 0 82.176 25.344t58.624 70.912v344.064h91.136v-378.368q0-39.936 20.48-58.368t54.272-18.432h30.208v-36.864q0-11.776-16.128-21.76t-45.824-9.984q-21.504 0-41.216 6.144t-35.84 19.2-27.904 32.768-16.896 46.848q-30.72-46.080-69.888-71.424t-88.32-25.344q-38.4 0-66.816 12.032t-47.872 35.072q3.072-20.992 4.352-42.496t1.28-40.448v-142.848h-45.568q-19.456 0-29.952 10.24t-10.496 28.672v655.36h91.648z" />
<glyph unicode="&#xb6;" glyph-name="uniB6" horiz-adv-x="717" d="M680.96 869.376v-78.336h-112.128v-758.272h-80.384v758.272h-141.824v-758.272h-80.384v440.832q-53.248 0-95.744 15.616t-72.448 42.496-46.080 63.232-16.128 77.824q0 44.032 16.128 80.128t46.080 61.952 72.448 40.192 95.744 14.336h414.72z" />
<glyph unicode="&#xb7;" glyph-name="uniB7" horiz-adv-x="266" d="M56.832 439.296q0 15.872 5.888 30.208t16.384 24.576 24.064 16.384 28.928 6.144q15.872 0 30.208-6.144t24.576-16.384 16.384-24.576 6.144-30.208q0-15.36-6.144-29.184t-16.384-24.32-24.576-16.384-30.208-5.888q-15.36 0-28.928 5.888t-24.064 16.384-16.384 24.32-5.888 29.184z" />
<glyph unicode="&#xb8;" glyph-name="uniB8" d="M144.384 6.144q3.072 0 7.168-1.792t9.984-4.096 13.824-4.096 18.688-1.792q21.504 0 32.512 8.704t11.008 22.016q0 19.456-21.504 27.392t-60.928 13.056l27.648 82.944h51.712l-14.848-51.2q47.616-9.728 68.864-27.648t21.248-45.568q0-16.384-8.192-29.696t-22.784-22.528-35.072-14.080-45.056-4.864q-20.992 0-39.936 4.352t-34.816 11.52l8.704 28.16q3.072 9.216 11.776 9.216z" />
<glyph unicode="&#xb9;" glyph-name="uniB9" horiz-adv-x="342" d="M80.896 640h75.264v225.28l2.048 22.016-54.784-45.056q-4.608-3.584-8.96-4.352t-8.448 0-7.424 2.816-4.864 4.096l-19.968 28.672 113.664 97.28h55.296v-330.752h66.56v-43.52h-208.384v43.52z" />
<glyph unicode="&#xba;" glyph-name="uniBA" horiz-adv-x="412" d="M206.848 877.568q35.84 0 64.768-11.008t49.408-31.488 31.744-49.92 11.264-65.792q0-36.864-11.264-66.56t-31.744-50.432-49.408-31.744-64.768-11.008q-36.352 0-65.536 11.008t-49.92 31.744-32 50.432-11.264 66.56q0 36.352 11.264 65.792t32 49.92 49.92 31.488 65.536 11.008zM206.848 613.888q43.008 0 64.256 26.88t21.248 78.080-21.248 77.824-64.256 26.624q-45.056 0-66.048-26.624t-20.992-77.824 20.992-78.080 66.048-26.88z" />
<glyph unicode="&#xbb;" glyph-name="uniBB" horiz-adv-x="440" d="M237.056 412.672v-11.776l-127.488-199.168-29.696 14.336q-11.776 5.632-14.080 16.128t4.864 22.272l80.896 133.632q3.584 6.144 7.168 10.752t7.168 7.68q-7.168 6.656-14.336 18.944l-80.896 133.632q-7.168 11.776-4.864 22.272t14.080 16.128l29.696 14.336zM388.608 412.672v-11.776l-127.488-199.168-29.696 14.336q-11.776 5.632-14.080 16.128t4.864 22.272l80.896 133.632q3.584 6.144 7.168 10.752t7.168 7.68q-7.168 6.656-14.336 18.944l-80.896 133.632q-7.168 11.776-4.864 22.272t14.080 16.128l29.696 14.336z" />
<glyph unicode="&#xbc;" glyph-name="uniBC" horiz-adv-x="752" d="M214.016 162.816q-9.728-15.872-20.992-21.504t-26.112-5.632h-38.912l418.816 702.464q9.216 14.848 20.992 23.040t28.16 8.192h39.424zM72.192 539.136h75.264v225.28l2.048 22.016-54.784-45.056q-4.608-3.584-8.96-4.352t-8.448 0-7.424 2.816-4.864 4.096l-19.968 28.672 113.664 97.28h55.296v-330.752h66.56v-43.52h-208.384v43.52zM655.36 272.384h55.808v-33.28q0-5.632-3.584-9.472t-9.728-3.84h-42.496v-90.112h-55.296v90.112h-156.672q-9.728 0-14.848 4.096t-6.656 10.24l-5.12 29.184 175.616 239.616h62.976v-236.544zM600.064 395.776q0 9.728 0.512 21.248t2.048 23.808l-123.904-168.448h121.344v123.392z" />
<glyph unicode="&#xbd;" glyph-name="uniBD" horiz-adv-x="743" d="M193.024 162.816q-9.728-15.872-20.992-21.504t-26.112-5.632h-38.912l418.816 702.464q9.216 14.848 20.992 23.040t28.16 8.192h39.424zM73.216 539.136h75.264v225.28l2.048 22.016-54.784-45.056q-4.608-3.584-8.96-4.352t-8.448 0-7.424 2.816-4.864 4.096l-19.968 28.672 113.664 97.28h55.296v-330.752h66.56v-43.52h-208.384v43.52zM570.368 513.024q26.624 0 48.384-7.68t37.12-21.504 23.808-33.536 8.448-43.776q0-20.48-6.4-38.144t-17.152-33.536-24.576-30.72-29.184-30.208l-83.456-84.992q11.776 3.584 24.064 5.632t23.040 2.048h99.84q10.24 0 16.128-5.632t5.888-15.872v-39.424h-261.632v22.016q0 6.656 2.816 13.824t8.96 13.312l113.152 112.128q25.6 25.6 43.264 52.736t17.664 54.784q0 26.112-15.36 40.192t-37.888 14.080q-24.064 0-38.4-12.288t-21.504-33.792q-5.12-9.216-11.776-12.8t-19.968-1.536l-36.352 6.144q7.68 54.272 43.008 81.408t88.064 27.136z" />
<glyph unicode="&#xbe;" glyph-name="uniBE" horiz-adv-x="760" d="M225.792 162.816q-9.728-15.872-20.992-21.504t-26.112-5.632h-38.912l418.816 702.464q9.216 14.848 20.992 23.040t28.16 8.192h39.424zM183.296 872.96q26.112 0 47.104-7.424t36.096-20.48 23.296-30.464 8.192-37.888q0-65.536-60.928-88.576 33.792-9.728 51.456-29.696t17.664-51.712q0-28.16-10.752-49.664t-28.416-36.096-40.96-22.016-47.872-7.424q-29.184 0-50.688 6.4t-37.12 18.944-26.624 30.976-18.688 42.496l28.16 12.288q11.264 4.608 21.248 2.304t14.080-11.008q2.56-5.12 6.656-13.056t11.52-15.616 18.944-13.056 28.928-5.376q15.872 0 27.904 5.12t20.224 13.056 12.288 18.176 4.096 20.992q0 15.36-4.352 26.368t-14.336 18.176-26.624 10.752-40.704 3.584v44.544q44.544 0.512 62.72 15.872t18.176 41.984q0 25.6-14.848 38.912t-39.424 13.312-39.168-12.032-20.736-32.512q-5.12-10.24-10.752-13.568t-18.944-1.28l-34.304 6.144q3.584 27.136 14.848 47.36t27.904 33.792 38.144 20.48 46.592 6.912zM664.064 272.384h55.808v-33.28q0-5.632-3.584-9.472t-9.728-3.84h-42.496v-90.112h-55.296v90.112h-156.672q-9.728 0-14.848 4.096t-6.656 10.24l-5.12 29.184 175.616 239.616h62.976v-236.544zM608.768 395.776q0 9.728 0.512 21.248t2.048 23.808l-123.904-168.448h121.344v123.392z" />
<glyph unicode="&#xbf;" glyph-name="uniBF" horiz-adv-x="451" d="M413.696 27.136q-15.872-14.848-35.072-28.16t-41.728-23.552-49.152-16.128-57.344-5.888q-40.448 0-74.752 11.264t-59.392 32.256-39.424 51.2-14.336 68.608q0 38.912 11.52 66.048t29.184 46.592 38.4 33.28l39.168 26.112t31.488 24.832 15.104 29.44l9.216 78.848h61.952l6.144-85.504q2.048-24.064-8.704-40.704t-28.16-29.952-38.4-25.6-39.168-27.648-30.464-36.352-12.288-51.712q0-22.528 8.704-40.192t23.808-30.208 35.072-19.2 43.008-6.656q31.232 0 53.504 7.68t37.888 16.896 25.088 16.896 15.616 7.68q13.312 0 19.456-11.776zM185.344 598.016q0 13.312 4.864 25.088t13.312 20.48 20.224 13.824 25.088 5.12 25.088-5.12 20.48-13.824 13.824-20.48 5.12-25.088q0-13.824-5.12-25.344t-13.824-20.224-20.48-13.568-25.088-4.864-25.088 4.864-20.224 13.568-13.312 20.224-4.864 25.344z" />
<glyph unicode="&#xc0;" glyph-name="uniC0" horiz-adv-x="693" d="M690.176 135.68h-76.8q-13.312 0-21.504 6.656t-12.288 16.896l-68.608 177.152h-329.216l-68.608-177.152q-3.072-9.216-11.776-16.384t-21.504-7.168h-76.8l293.376 733.696h100.352zM209.408 408.064h273.92l-115.2 298.496q-5.632 13.312-11.008 30.72t-11.008 37.376q-5.12-19.968-10.496-37.632t-11.008-30.976zM256 1083.904q16.896 0 25.6-2.56t17.408-13.824l116.736-140.288h-65.536q-11.264 0-17.664 1.28t-14.080 8.448l-159.744 146.944h97.28z" />
<glyph unicode="&#xc1;" glyph-name="uniC1" horiz-adv-x="693" d="M690.176 135.68h-76.8q-13.312 0-21.504 6.656t-12.288 16.896l-68.608 177.152h-329.216l-68.608-177.152q-3.072-9.216-11.776-16.384t-21.504-7.168h-76.8l293.376 733.696h100.352zM209.408 408.064h273.92l-115.2 298.496q-5.632 13.312-11.008 30.72t-11.008 37.376q-5.12-19.968-10.496-37.632t-11.008-30.976zM540.16 1083.904l-166.912-146.432q-7.68-7.168-14.848-8.704t-17.408-1.536h-65.536l118.272 140.288q8.704 11.264 17.664 13.824t25.856 2.56h102.912z" />
<glyph unicode="&#xc2;" glyph-name="uniC2" horiz-adv-x="693" d="M690.176 135.68h-76.8q-13.312 0-21.504 6.656t-12.288 16.896l-68.608 177.152h-329.216l-68.608-177.152q-3.072-9.216-11.776-16.384t-21.504-7.168h-76.8l293.376 733.696h100.352zM209.408 408.064h273.92l-115.2 298.496q-5.632 13.312-11.008 30.72t-11.008 37.376q-5.12-19.968-10.496-37.632t-11.008-30.976zM510.464 927.232h-66.56q-6.144 0-14.592 2.304t-17.152 12.544l-59.904 72.192q-3.072 4.096-6.144 8.704l-6.144-8.704-59.904-72.192q-8.704-10.24-17.152-12.544t-14.592-2.304h-64l122.368 138.752h81.92z" />
<glyph unicode="&#xc3;" glyph-name="uniC3" horiz-adv-x="693" d="M690.176 135.68h-76.8q-13.312 0-21.504 6.656t-12.288 16.896l-68.608 177.152h-329.216l-68.608-177.152q-3.072-9.216-11.776-16.384t-21.504-7.168h-76.8l293.376 733.696h100.352zM209.408 408.064h273.92l-115.2 298.496q-5.632 13.312-11.008 30.72t-11.008 37.376q-5.12-19.968-10.496-37.632t-11.008-30.976zM410.624 987.136q11.776 0 20.736 4.352t15.104 11.776 9.216 16.64 3.072 18.432h55.808q0-22.016-6.144-42.24t-18.176-35.84-29.44-24.832-39.936-9.216q-23.040 0-41.216 8.448t-33.792 18.432-29.44 18.432-28.16 8.448q-11.776 0-20.48-4.608t-14.592-12.032-8.96-16.64-3.072-18.432h-56.832q0 22.016 6.4 42.496t18.176 36.096 29.184 24.832 39.936 9.216q23.040 0 41.472-8.448t33.792-18.432 29.184-18.432 28.16-8.448z" />
<glyph unicode="&#xc4;" glyph-name="uniC4" horiz-adv-x="693" d="M690.176 135.68h-76.8q-13.312 0-21.504 6.656t-12.288 16.896l-68.608 177.152h-329.216l-68.608-177.152q-3.072-9.216-11.776-16.384t-21.504-7.168h-76.8l293.376 733.696h100.352zM209.408 408.064h273.92l-115.2 298.496q-5.632 13.312-11.008 30.72t-11.008 37.376q-5.12-19.968-10.496-37.632t-11.008-30.976zM295.424 988.672q0-11.264-4.608-21.248t-12.544-17.664-18.432-12.032-21.76-4.352q-10.752 0-20.736 4.352t-17.664 12.032-12.288 17.664-4.608 21.248q0 11.776 4.608 22.272t12.288 18.176 17.664 12.288 20.736 4.608q11.264 0 21.76-4.608t18.432-12.288 12.544-18.176 4.608-22.272zM509.44 988.672q0-11.264-4.608-21.248t-12.288-17.664-17.92-12.032-21.504-4.352q-11.776 0-22.016 4.352t-17.92 12.032-12.032 17.664-4.352 21.248q0 11.776 4.352 22.272t12.032 18.176 17.92 12.288 22.016 4.608q11.264 0 21.504-4.608t17.92-12.288 12.288-18.176 4.608-22.272z" />
<glyph unicode="&#xc5;" glyph-name="uniC5" horiz-adv-x="693" d="M690.176 135.68h-76.8q-13.312 0-21.504 6.656t-12.288 16.896l-68.608 177.152h-329.216l-68.608-177.152q-3.072-9.216-11.776-16.384t-21.504-7.168h-76.8l293.376 733.696h100.352zM209.408 408.064h273.92l-115.2 298.496q-5.632 13.312-11.008 30.72t-11.008 37.376q-5.12-19.968-10.496-37.632t-11.008-30.976zM249.344 1004.544q0 19.968 7.936 36.864t20.992 28.672 30.464 18.432 36.864 6.656q19.968 0 37.888-6.656t31.232-18.432 21.248-28.672 7.936-36.864-7.936-36.352-21.248-28.16-31.232-18.432-37.888-6.656q-19.456 0-36.864 6.656t-30.464 18.432-20.992 28.16-7.936 36.352zM294.912 1004.544q0-22.528 13.824-36.864t38.4-14.336q23.040 0 37.12 14.336t14.080 36.864q0 23.040-14.080 37.376t-37.12 14.336q-24.576 0-38.4-14.336t-13.824-37.376z" />
<glyph unicode="&#xc6;" glyph-name="uniC6" horiz-adv-x="953" d="M384 869.376h523.264v-80.896h-383.488l30.208-243.712h286.208v-77.824h-276.48l31.232-250.368h312.832l-0.512-80.896h-395.264l-25.088 200.704h-285.184l-91.648-177.664q-5.12-10.24-14.848-16.64t-23.040-6.4h-75.264zM239.104 408.064h238.592l-48.128 386.56q-6.656-20.992-13.824-39.168t-14.336-34.048z" />
<glyph unicode="&#xc7;" glyph-name="uniC7" horiz-adv-x="684" d="M338.944 6.144q3.072 0 7.168-1.792t9.984-4.096 13.824-4.096 18.688-1.792q21.504 0 32.512 8.704t11.008 22.016q0 19.456-21.504 27.392t-60.928 13.056l20.992 62.976q-73.216 4.608-132.608 33.792t-101.632 78.336-65.024 115.712-22.784 145.92q0 82.944 26.112 152.064t73.472 118.784 113.408 77.056 145.92 27.392q78.336 0 138.24-25.088t105.472-68.096l-32.768-45.568q-3.072-5.12-7.936-8.448t-13.056-3.328q-9.216 0-22.528 9.984t-34.816 22.272-53.76 22.272-79.36 9.984q-56.832 0-103.936-19.712t-81.152-57.088-52.992-91.136-18.944-121.344q0-68.608 19.712-122.368t53.76-90.88 80.384-56.576 100.096-19.456q32.768 0 59.136 3.84t48.64 12.032 41.472 20.736 38.144 29.952q8.704 7.68 17.408 7.68 8.192 0 14.336-6.656l39.424-42.496q-41.984-48.64-100.096-77.056t-139.008-32.512l-9.216-31.232q47.616-9.728 68.864-27.648t21.248-45.568q0-16.384-8.192-29.696t-22.784-22.528-35.072-14.080-45.056-4.864q-20.992 0-39.936 4.352t-34.816 11.52l8.704 28.16q3.072 9.216 11.776 9.216z" />
<glyph unicode="&#xc8;" glyph-name="uniC8" horiz-adv-x="591" d="M545.792 869.376v-80.896h-352.768v-243.712h285.696v-77.824h-285.696v-250.368h353.28l-0.512-80.896h-452.096v733.696h452.096zM235.52 1083.904q16.896 0 25.6-2.56t17.408-13.824l116.736-140.288h-65.536q-11.264 0-17.664 1.28t-14.080 8.448l-159.744 146.944h97.28z" />
<glyph unicode="&#xc9;" glyph-name="uniC9" horiz-adv-x="591" d="M545.792 869.376v-80.896h-352.768v-243.712h285.696v-77.824h-285.696v-250.368h353.28l-0.512-80.896h-452.096v733.696h452.096zM519.68 1083.904l-166.912-146.432q-7.68-7.168-14.848-8.704t-17.408-1.536h-65.536l118.272 140.288q8.704 11.264 17.664 13.824t25.856 2.56h102.912z" />
<glyph unicode="&#xca;" glyph-name="uniCA" horiz-adv-x="591" d="M545.792 869.376v-80.896h-352.768v-243.712h285.696v-77.824h-285.696v-250.368h353.28l-0.512-80.896h-452.096v733.696h452.096zM490.496 927.232h-66.56q-6.144 0-14.592 2.304t-17.152 12.544l-59.904 72.192q-3.072 4.096-6.144 8.704l-6.144-8.704-59.904-72.192q-8.704-10.24-17.152-12.544t-14.592-2.304h-64l122.368 138.752h81.92z" />
<glyph unicode="&#xcb;" glyph-name="uniCB" horiz-adv-x="591" d="M545.792 869.376v-80.896h-352.768v-243.712h285.696v-77.824h-285.696v-250.368h353.28l-0.512-80.896h-452.096v733.696h452.096zM275.456 988.672q0-11.264-4.608-21.248t-12.544-17.664-18.432-12.032-21.76-4.352q-10.752 0-20.736 4.352t-17.664 12.032-12.288 17.664-4.608 21.248q0 11.776 4.608 22.272t12.288 18.176 17.664 12.288 20.736 4.608q11.264 0 21.76-4.608t18.432-12.288 12.544-18.176 4.608-22.272zM489.472 988.672q0-11.264-4.608-21.248t-12.288-17.664-17.92-12.032-21.504-4.352q-11.776 0-22.016 4.352t-17.92 12.032-12.032 17.664-4.352 21.248q0 11.776 4.352 22.272t12.032 18.176 17.92 12.288 22.016 4.608q11.264 0 21.504-4.608t17.92-12.288 12.288-18.176 4.608-22.272z" />
<glyph unicode="&#xcc;" glyph-name="uniCC" horiz-adv-x="287" d="M193.024 135.68h-99.328v733.696h99.328v-733.696zM54.272 1083.904q16.896 0 25.6-2.56t17.408-13.824l116.736-140.288h-65.536q-11.264 0-17.664 1.28t-14.080 8.448l-159.744 146.944h97.28z" />
<glyph unicode="&#xcd;" glyph-name="uniCD" horiz-adv-x="287" d="M193.024 135.68h-99.328v733.696h99.328v-733.696zM338.432 1083.904l-166.912-146.432q-7.68-7.168-14.848-8.704t-17.408-1.536h-65.536l118.272 140.288q8.704 11.264 17.664 13.824t25.856 2.56h102.912z" />
<glyph unicode="&#xce;" glyph-name="uniCE" horiz-adv-x="287" d="M193.024 135.68h-99.328v733.696h99.328v-733.696zM309.248 927.232h-66.56q-6.144 0-14.592 2.304t-17.152 12.544l-59.904 72.192q-3.072 4.096-6.144 8.704l-6.144-8.704-59.904-72.192q-8.704-10.24-17.152-12.544t-14.592-2.304h-64l122.368 138.752h81.92z" />
<glyph unicode="&#xcf;" glyph-name="uniCF" horiz-adv-x="287" d="M193.024 135.68h-99.328v733.696h99.328v-733.696zM94.208 988.672q0-11.264-4.608-21.248t-12.544-17.664-18.432-12.032-21.76-4.352q-10.752 0-20.736 4.352t-17.664 12.032-12.288 17.664-4.608 21.248q0 11.776 4.608 22.272t12.288 18.176 17.664 12.288 20.736 4.608q11.264 0 21.76-4.608t18.432-12.288 12.544-18.176 4.608-22.272zM308.224 988.672q0-11.264-4.608-21.248t-12.288-17.664-17.92-12.032-21.504-4.352q-11.776 0-22.016 4.352t-17.92 12.032-12.032 17.664-4.352 21.248q0 11.776 4.352 22.272t12.032 18.176 17.92 12.288 22.016 4.608q11.264 0 21.504-4.608t17.92-12.288 12.288-18.176 4.608-22.272z" />
<glyph unicode="&#xd0;" glyph-name="uniD0" horiz-adv-x="787" d="M1.536 535.040h100.352v334.336h274.432q80.896 0 147.456-26.368t114.176-74.752 73.728-115.968 26.112-150.016-26.112-150.016-73.728-115.712-114.176-74.496-147.456-26.368h-274.432v340.992h-100.352v58.368zM635.904 502.272q0 67.584-18.432 120.832t-52.224 90.112-81.92 56.32-107.008 19.456h-174.592v-253.952h148.48v-58.368h-148.48v-260.608h174.592q58.88 0 107.008 19.456t81.92 56.064 52.224 89.856 18.432 120.832z" />
<glyph unicode="&#xd1;" glyph-name="uniD1" horiz-adv-x="782" d="M144.896 869.376q6.656 0 11.264-0.768t8.192-2.56 7.168-5.12 7.68-8.448l424.448-552.448q-1.024 13.312-1.792 25.856t-0.768 23.808v519.68h87.040v-733.696h-49.664q-11.776 0-19.712 4.096t-15.616 13.824l-424.448 552.448q1.024-12.8 1.536-25.088t0.512-22.528v-522.752h-87.040v733.696h51.2zM462.848 986.624q11.776 0 20.736 4.352t15.104 11.776 9.216 16.64 3.072 18.432h55.808q0-22.016-6.144-42.24t-18.176-35.84-29.44-24.832-39.936-9.216q-23.040 0-41.216 8.448t-33.792 18.432-29.44 18.432-28.16 8.448q-11.776 0-20.48-4.608t-14.592-12.032-8.96-16.64-3.072-18.432h-56.832q0 22.016 6.4 42.496t18.176 36.096 29.184 24.832 39.936 9.216q23.040 0 41.472-8.448t33.792-18.432 29.184-18.432 28.16-8.448z" />
<glyph unicode="&#xd2;" glyph-name="uniD2" horiz-adv-x="820" d="M771.584 502.272q0-82.432-26.112-151.296t-73.728-118.528-114.432-77.056-147.712-27.392-147.456 27.392-114.176 77.056-73.728 118.528-26.112 151.296 26.112 151.296 73.728 118.784 114.176 77.568 147.456 27.648 147.712-27.648 114.432-77.568 73.728-118.784 26.112-151.296zM669.696 502.272q0 67.584-18.432 121.344t-52.224 90.88-81.92 57.088-107.52 19.968q-58.88 0-107.008-19.968t-82.176-57.088-52.48-90.88-18.432-121.344 18.432-121.088 52.48-90.624 82.176-56.832 107.008-19.712q59.392 0 107.52 19.712t81.92 56.832 52.224 90.624 18.432 121.088zM320 1083.904q16.896 0 25.6-2.56t17.408-13.824l116.736-140.288h-65.536q-11.264 0-17.664 1.28t-14.080 8.448l-159.744 146.944h97.28z" />
<glyph unicode="&#xd3;" glyph-name="uniD3" horiz-adv-x="820" d="M771.584 502.272q0-82.432-26.112-151.296t-73.728-118.528-114.432-77.056-147.712-27.392-147.456 27.392-114.176 77.056-73.728 118.528-26.112 151.296 26.112 151.296 73.728 118.784 114.176 77.568 147.456 27.648 147.712-27.648 114.432-77.568 73.728-118.784 26.112-151.296zM669.696 502.272q0 67.584-18.432 121.344t-52.224 90.88-81.92 57.088-107.52 19.968q-58.88 0-107.008-19.968t-82.176-57.088-52.48-90.88-18.432-121.344 18.432-121.088 52.48-90.624 82.176-56.832 107.008-19.712q59.392 0 107.52 19.712t81.92 56.832 52.224 90.624 18.432 121.088zM604.16 1083.904l-166.912-146.432q-7.68-7.168-14.848-8.704t-17.408-1.536h-65.536l118.272 140.288q8.704 11.264 17.664 13.824t25.856 2.56h102.912z" />
<glyph unicode="&#xd4;" glyph-name="uniD4" horiz-adv-x="820" d="M771.584 502.272q0-82.432-26.112-151.296t-73.728-118.528-114.432-77.056-147.712-27.392-147.456 27.392-114.176 77.056-73.728 118.528-26.112 151.296 26.112 151.296 73.728 118.784 114.176 77.568 147.456 27.648 147.712-27.648 114.432-77.568 73.728-118.784 26.112-151.296zM669.696 502.272q0 67.584-18.432 121.344t-52.224 90.88-81.92 57.088-107.52 19.968q-58.88 0-107.008-19.968t-82.176-57.088-52.48-90.88-18.432-121.344 18.432-121.088 52.48-90.624 82.176-56.832 107.008-19.712q59.392 0 107.52 19.712t81.92 56.832 52.224 90.624 18.432 121.088zM574.976 927.232h-66.56q-6.144 0-14.592 2.304t-17.152 12.544l-59.904 72.192q-3.072 4.096-6.144 8.704l-6.144-8.704-59.904-72.192q-8.704-10.24-17.152-12.544t-14.592-2.304h-64l122.368 138.752h81.92z" />
<glyph unicode="&#xd5;" glyph-name="uniD5" horiz-adv-x="820" d="M771.584 502.272q0-82.432-26.112-151.296t-73.728-118.528-114.432-77.056-147.712-27.392-147.456 27.392-114.176 77.056-73.728 118.528-26.112 151.296 26.112 151.296 73.728 118.784 114.176 77.568 147.456 27.648 147.712-27.648 114.432-77.568 73.728-118.784 26.112-151.296zM669.696 502.272q0 67.584-18.432 121.344t-52.224 90.88-81.92 57.088-107.52 19.968q-58.88 0-107.008-19.968t-82.176-57.088-52.48-90.88-18.432-121.344 18.432-121.088 52.48-90.624 82.176-56.832 107.008-19.712q59.392 0 107.52 19.712t81.92 56.832 52.224 90.624 18.432 121.088zM475.136 987.136q11.776 0 20.736 4.352t15.104 11.776 9.216 16.64 3.072 18.432h55.808q0-22.016-6.144-42.24t-18.176-35.84-29.44-24.832-39.936-9.216q-23.040 0-41.216 8.448t-33.792 18.432-29.44 18.432-28.16 8.448q-11.776 0-20.48-4.608t-14.592-12.032-8.96-16.64-3.072-18.432h-56.832q0 22.016 6.4 42.496t18.176 36.096 29.184 24.832 39.936 9.216q23.040 0 41.472-8.448t33.792-18.432 29.184-18.432 28.16-8.448z" />
<glyph unicode="&#xd6;" glyph-name="uniD6" horiz-adv-x="820" d="M771.584 502.272q0-82.432-26.112-151.296t-73.728-118.528-114.432-77.056-147.712-27.392-147.456 27.392-114.176 77.056-73.728 118.528-26.112 151.296 26.112 151.296 73.728 118.784 114.176 77.568 147.456 27.648 147.712-27.648 114.432-77.568 73.728-118.784 26.112-151.296zM669.696 502.272q0 67.584-18.432 121.344t-52.224 90.88-81.92 57.088-107.52 19.968q-58.88 0-107.008-19.968t-82.176-57.088-52.48-90.88-18.432-121.344 18.432-121.088 52.48-90.624 82.176-56.832 107.008-19.712q59.392 0 107.52 19.712t81.92 56.832 52.224 90.624 18.432 121.088zM359.936 988.672q0-11.264-4.608-21.248t-12.544-17.664-18.432-12.032-21.76-4.352q-10.752 0-20.736 4.352t-17.664 12.032-12.288 17.664-4.608 21.248q0 11.776 4.608 22.272t12.288 18.176 17.664 12.288 20.736 4.608q11.264 0 21.76-4.608t18.432-12.288 12.544-18.176 4.608-22.272zM573.952 988.672q0-11.264-4.608-21.248t-12.288-17.664-17.92-12.032-21.504-4.352q-11.776 0-22.016 4.352t-17.92 12.032-12.032 17.664-4.352 21.248q0 11.776 4.352 22.272t12.032 18.176 17.92 12.288 22.016 4.608q11.264 0 21.504-4.608t17.92-12.288 12.288-18.176 4.608-22.272z" />
<glyph unicode="&#xd7;" glyph-name="uniD7" horiz-adv-x="594" d="M522.24 654.848l-175.616-175.616 181.248-181.248-48.64-49.152-181.76 181.248-182.272-182.272-48.64 49.152 182.272 182.272-176.64 176.64 48.64 49.152 176.64-177.152 175.616 176.128z" />
<glyph unicode="&#xd8;" glyph-name="uniD8" horiz-adv-x="820" d="M771.584 502.272q0-82.432-26.112-151.296t-73.728-118.528-114.432-77.056-147.712-27.392q-55.296 0-103.424 12.544t-88.576 37.12l-51.2-69.632q-10.752-15.36-25.856-21.76t-29.952-6.4h-39.936l97.792 133.12q-57.344 50.176-88.832 123.904t-31.488 165.376q0 82.432 26.112 151.296t73.728 118.784 114.176 77.568 147.456 27.648q58.88 0 110.080-14.848t93.696-42.496l41.984 56.832q10.24 13.824 18.432 19.712t24.576 5.888h51.2l-88.064-120.32q52.736-50.176 81.408-121.344t28.672-158.72zM149.504 502.272q0-69.12 19.2-123.136t54.528-91.392l337.408 460.288q-30.72 21.504-68.608 32.512t-82.432 11.008q-58.88 0-107.008-19.968t-82.176-57.088-52.48-90.88-18.432-121.344zM669.696 502.272q0 64.512-16.64 115.968t-47.36 88.32l-335.36-456.704q59.392-35.84 139.264-35.84 59.392 0 107.52 19.712t81.92 56.832 52.224 90.624 18.432 121.088z" />
<glyph unicode="&#xd9;" glyph-name="uniD9" horiz-adv-x="753" d="M376.832 214.528q45.568 0 81.408 15.36t60.672 43.008 37.888 66.048 13.056 84.48v445.952h98.816v-445.952q0-63.488-20.224-117.76t-57.856-93.952-91.904-62.208-121.856-22.528-121.856 22.528-92.16 62.208-58.112 93.952-20.224 117.76v445.952h98.816v-445.44q0-46.080 13.056-84.48t37.888-66.048 60.928-43.264 81.664-15.616zM286.208 1083.904q16.896 0 25.6-2.56t17.408-13.824l116.736-140.288h-65.536q-11.264 0-17.664 1.28t-14.080 8.448l-159.744 146.944h97.28z" />
<glyph unicode="&#xda;" glyph-name="uniDA" horiz-adv-x="753" d="M376.832 214.528q45.568 0 81.408 15.36t60.672 43.008 37.888 66.048 13.056 84.48v445.952h98.816v-445.952q0-63.488-20.224-117.76t-57.856-93.952-91.904-62.208-121.856-22.528-121.856 22.528-92.16 62.208-58.112 93.952-20.224 117.76v445.952h98.816v-445.44q0-46.080 13.056-84.48t37.888-66.048 60.928-43.264 81.664-15.616zM570.368 1083.904l-166.912-146.432q-7.68-7.168-14.848-8.704t-17.408-1.536h-65.536l118.272 140.288q8.704 11.264 17.664 13.824t25.856 2.56h102.912z" />
<glyph unicode="&#xdb;" glyph-name="uniDB" horiz-adv-x="753" d="M376.832 214.528q45.568 0 81.408 15.36t60.672 43.008 37.888 66.048 13.056 84.48v445.952h98.816v-445.952q0-63.488-20.224-117.76t-57.856-93.952-91.904-62.208-121.856-22.528-121.856 22.528-92.16 62.208-58.112 93.952-20.224 117.76v445.952h98.816v-445.44q0-46.080 13.056-84.48t37.888-66.048 60.928-43.264 81.664-15.616zM541.184 927.232h-66.56q-6.144 0-14.592 2.304t-17.152 12.544l-59.904 72.192q-3.072 4.096-6.144 8.704l-6.144-8.704-59.904-72.192q-8.704-10.24-17.152-12.544t-14.592-2.304h-64l122.368 138.752h81.92z" />
<glyph unicode="&#xdc;" glyph-name="uniDC" horiz-adv-x="753" d="M376.832 214.528q45.568 0 81.408 15.36t60.672 43.008 37.888 66.048 13.056 84.48v445.952h98.816v-445.952q0-63.488-20.224-117.76t-57.856-93.952-91.904-62.208-121.856-22.528-121.856 22.528-92.16 62.208-58.112 93.952-20.224 117.76v445.952h98.816v-445.44q0-46.080 13.056-84.48t37.888-66.048 60.928-43.264 81.664-15.616zM326.144 988.672q0-11.264-4.608-21.248t-12.544-17.664-18.432-12.032-21.76-4.352q-10.752 0-20.736 4.352t-17.664 12.032-12.288 17.664-4.608 21.248q0 11.776 4.608 22.272t12.288 18.176 17.664 12.288 20.736 4.608q11.264 0 21.76-4.608t18.432-12.288 12.544-18.176 4.608-22.272zM540.16 988.672q0-11.264-4.608-21.248t-12.288-17.664-17.92-12.032-21.504-4.352q-11.776 0-22.016 4.352t-17.92 12.032-12.032 17.664-4.352 21.248q0 11.776 4.352 22.272t12.032 18.176 17.92 12.288 22.016 4.608q11.264 0 21.504-4.608t17.92-12.288 12.288-18.176 4.608-22.272z" />
<glyph unicode="&#xdd;" glyph-name="uniDD" horiz-adv-x="639" d="M369.152 428.032v-292.352h-99.328v292.352l-268.8 441.344h87.040q13.312 0 20.992-6.4t13.312-16.64l167.936-285.184q9.216-17.92 16.64-33.536t13.056-30.976q5.632 15.36 12.8 30.976t16.384 33.536l167.424 285.184q4.608 8.704 12.8 15.872t20.992 7.168h87.552zM514.048 1083.904l-166.912-146.432q-7.68-7.168-14.848-8.704t-17.408-1.536h-65.536l118.272 140.288q8.704 11.264 17.664 13.824t25.856 2.56h102.912z" />
<glyph unicode="&#xde;" glyph-name="uniDE" horiz-adv-x="613" d="M192.512 274.944v-139.264h-98.816v733.696h98.816v-135.168h117.76q69.632 0 121.088-16.128t85.248-45.824 50.432-71.68 16.64-93.696q0-51.2-17.92-93.696t-52.48-73.216-85.504-47.872-117.504-17.152h-117.76zM192.512 353.792h117.76q42.496 0 75.008 11.264t54.784 31.488 33.536 48.384 11.264 61.952q0 70.144-43.264 109.568t-131.328 39.424h-117.76v-302.080z" />
<glyph unicode="&#xdf;" glyph-name="uniDF" horiz-adv-x="594" d="M321.536 880.128q52.736 0 91.136-15.36t63.488-39.168 37.12-51.968 12.032-54.272q0-30.72-11.008-52.736t-27.392-38.912-35.584-29.696-35.584-25.088-27.392-25.344-11.008-29.44q0-19.968 13.568-33.28t34.048-24.832 44.288-23.552 44.288-29.952 34.048-44.032 13.568-66.048-14.592-71.168-39.936-52.992-60.16-33.28-74.752-11.52q-49.664 0-90.368 17.664t-71.424 45.312l21.504 34.816q4.096 6.656 9.728 10.24t14.848 3.584 19.456-7.168 24.064-15.872 33.024-15.872 46.848-7.168q22.016 0 39.936 6.912t30.72 18.688 19.456 28.16 6.656 35.328q0 28.672-14.336 46.592t-35.84 30.976-46.848 23.808-46.848 25.6-35.84 36.096-14.336 55.040q0 27.136 11.52 47.36t28.672 36.352 37.376 29.952 37.376 29.184 28.672 33.536 11.52 42.752q0 16.384-6.4 33.024t-20.736 29.952-37.12 21.76-55.552 8.448q-34.816 0-62.976-10.752t-48.64-32.256-31.488-53.76-11.008-75.264v-504.832h-91.136v507.904q0 53.248 17.664 96.768t50.432 74.752 78.848 48.128 102.4 16.896z" />
<glyph unicode="&#xe0;" glyph-name="uniE0" horiz-adv-x="509" d="M401.92 135.68q-13.312 0-20.48 4.352t-11.264 17.152l-10.24 48.64q-20.48-18.432-40.192-33.024t-40.96-24.576-45.568-15.36-54.016-5.376q-30.208 0-56.832 8.448t-46.336 25.344-31.232 42.752-11.52 61.184q0 30.72 16.896 59.136t54.784 50.432 98.816 36.096 149.504 16.128v40.448q0 60.416-26.112 91.392t-76.288 30.976q-33.792 0-56.576-8.448t-39.424-18.944-28.672-18.944-23.808-8.448q-9.216 0-15.872 4.864t-11.264 12.032l-16.384 29.184q43.008 41.472 92.672 61.952t110.080 20.48q43.52 0 77.312-14.336t56.832-39.936 34.816-61.952 11.776-79.872v-331.776h-40.448zM206.336 191.488q24.064 0 44.032 4.864t37.632 13.824 33.792 22.016 31.488 29.44v107.52q-62.976-2.048-107.264-9.984t-72.192-20.736-40.448-30.208-12.544-38.912q0-20.48 6.656-35.328t18.176-24.32 27.136-13.824 33.536-4.352zM199.168 877.568q16.896 0 25.088-5.376t15.36-17.152l76.288-123.904h-52.224q-10.752 0-17.408 3.328t-13.824 11.008l-119.808 132.096h86.528z" />
<glyph unicode="&#xe1;" glyph-name="uniE1" horiz-adv-x="509" d="M401.92 135.68q-13.312 0-20.48 4.352t-11.264 17.152l-10.24 48.64q-20.48-18.432-40.192-33.024t-40.96-24.576-45.568-15.36-54.016-5.376q-30.208 0-56.832 8.448t-46.336 25.344-31.232 42.752-11.52 61.184q0 30.72 16.896 59.136t54.784 50.432 98.816 36.096 149.504 16.128v40.448q0 60.416-26.112 91.392t-76.288 30.976q-33.792 0-56.576-8.448t-39.424-18.944-28.672-18.944-23.808-8.448q-9.216 0-15.872 4.864t-11.264 12.032l-16.384 29.184q43.008 41.472 92.672 61.952t110.080 20.48q43.52 0 77.312-14.336t56.832-39.936 34.816-61.952 11.776-79.872v-331.776h-40.448zM206.336 191.488q24.064 0 44.032 4.864t37.632 13.824 33.792 22.016 31.488 29.44v107.52q-62.976-2.048-107.264-9.984t-72.192-20.736-40.448-30.208-12.544-38.912q0-20.48 6.656-35.328t18.176-24.32 27.136-13.824 33.536-4.352zM399.36 877.568l-119.296-132.096q-7.168-7.68-14.080-11.008t-17.664-3.328h-54.272l75.776 123.904q7.168 11.776 15.616 17.152t24.832 5.376h89.088z" />
<glyph unicode="&#xe2;" glyph-name="uniE2" horiz-adv-x="509" d="M401.92 135.68q-13.312 0-20.48 4.352t-11.264 17.152l-10.24 48.64q-20.48-18.432-40.192-33.024t-40.96-24.576-45.568-15.36-54.016-5.376q-30.208 0-56.832 8.448t-46.336 25.344-31.232 42.752-11.52 61.184q0 30.72 16.896 59.136t54.784 50.432 98.816 36.096 149.504 16.128v40.448q0 60.416-26.112 91.392t-76.288 30.976q-33.792 0-56.576-8.448t-39.424-18.944-28.672-18.944-23.808-8.448q-9.216 0-15.872 4.864t-11.264 12.032l-16.384 29.184q43.008 41.472 92.672 61.952t110.080 20.48q43.52 0 77.312-14.336t56.832-39.936 34.816-61.952 11.776-79.872v-331.776h-40.448zM206.336 191.488q24.064 0 44.032 4.864t37.632 13.824 33.792 22.016 31.488 29.44v107.52q-62.976-2.048-107.264-9.984t-72.192-20.736-40.448-30.208-12.544-38.912q0-20.48 6.656-35.328t18.176-24.32 27.136-13.824 33.536-4.352zM407.040 734.208h-60.928q-5.632 0-11.52 2.048t-11.52 7.68l-62.976 67.584q-2.56 2.048-4.352 4.608t-4.352 5.12q-4.096-5.632-8.192-9.728l-63.488-67.584q-10.752-9.728-23.040-9.728h-62.976l114.176 135.168h84.992z" />
<glyph unicode="&#xe3;" glyph-name="uniE3" horiz-adv-x="509" d="M401.92 135.68q-13.312 0-20.48 4.352t-11.264 17.152l-10.24 48.64q-20.48-18.432-40.192-33.024t-40.96-24.576-45.568-15.36-54.016-5.376q-30.208 0-56.832 8.448t-46.336 25.344-31.232 42.752-11.52 61.184q0 30.72 16.896 59.136t54.784 50.432 98.816 36.096 149.504 16.128v40.448q0 60.416-26.112 91.392t-76.288 30.976q-33.792 0-56.576-8.448t-39.424-18.944-28.672-18.944-23.808-8.448q-9.216 0-15.872 4.864t-11.264 12.032l-16.384 29.184q43.008 41.472 92.672 61.952t110.080 20.48q43.52 0 77.312-14.336t56.832-39.936 34.816-61.952 11.776-79.872v-331.776h-40.448zM206.336 191.488q24.064 0 44.032 4.864t37.632 13.824 33.792 22.016 31.488 29.44v107.52q-62.976-2.048-107.264-9.984t-72.192-20.736-40.448-30.208-12.544-38.912q0-20.48 6.656-35.328t18.176-24.32 27.136-13.824 33.536-4.352zM306.688 814.080q18.432 0 28.416 10.752t10.496 33.28h55.296q0-24.064-6.4-44.288t-18.432-34.56-28.672-22.272-37.12-7.936q-17.92 0-33.536 7.424t-29.44 16.128-26.112 16.128-24.064 7.424q-36.864 0-37.888-45.056h-56.832q0 24.576 6.656 44.8t18.944 34.816 29.184 22.528 36.864 7.936q17.92 0 33.536-7.424t29.44-16.128 25.856-16.128 23.808-7.424z" />
<glyph unicode="&#xe4;" glyph-name="uniE4" horiz-adv-x="509" d="M401.92 135.68q-13.312 0-20.48 4.352t-11.264 17.152l-10.24 48.64q-20.48-18.432-40.192-33.024t-40.96-24.576-45.568-15.36-54.016-5.376q-30.208 0-56.832 8.448t-46.336 25.344-31.232 42.752-11.52 61.184q0 30.72 16.896 59.136t54.784 50.432 98.816 36.096 149.504 16.128v40.448q0 60.416-26.112 91.392t-76.288 30.976q-33.792 0-56.576-8.448t-39.424-18.944-28.672-18.944-23.808-8.448q-9.216 0-15.872 4.864t-11.264 12.032l-16.384 29.184q43.008 41.472 92.672 61.952t110.080 20.48q43.52 0 77.312-14.336t56.832-39.936 34.816-61.952 11.776-79.872v-331.776h-40.448zM206.336 191.488q24.064 0 44.032 4.864t37.632 13.824 33.792 22.016 31.488 29.44v107.52q-62.976-2.048-107.264-9.984t-72.192-20.736-40.448-30.208-12.544-38.912q0-20.48 6.656-35.328t18.176-24.32 27.136-13.824 33.536-4.352zM210.432 795.648q0-11.776-4.608-22.016t-12.8-17.92-18.688-12.288-22.272-4.608q-11.264 0-21.504 4.608t-18.176 12.288-12.544 17.92-4.608 22.016 4.608 22.528 12.544 18.688 18.176 12.544 21.504 4.608q11.776 0 22.272-4.608t18.688-12.544 12.8-18.688 4.608-22.528zM405.504 795.648q0-11.776-4.608-22.016t-12.544-17.92-18.432-12.288-22.272-4.608-22.272 4.608-18.176 12.288-12.288 17.92-4.608 22.016 4.608 22.528 12.288 18.688 18.176 12.544 22.272 4.608 22.272-4.608 18.432-12.544 12.544-18.688 4.608-22.528z" />
<glyph unicode="&#xe5;" glyph-name="uniE5" horiz-adv-x="509" d="M401.92 135.68q-13.312 0-20.48 4.352t-11.264 17.152l-10.24 48.64q-20.48-18.432-40.192-33.024t-40.96-24.576-45.568-15.36-54.016-5.376q-30.208 0-56.832 8.448t-46.336 25.344-31.232 42.752-11.52 61.184q0 30.72 16.896 59.136t54.784 50.432 98.816 36.096 149.504 16.128v40.448q0 60.416-26.112 91.392t-76.288 30.976q-33.792 0-56.576-8.448t-39.424-18.944-28.672-18.944-23.808-8.448q-9.216 0-15.872 4.864t-11.264 12.032l-16.384 29.184q43.008 41.472 92.672 61.952t110.080 20.48q43.52 0 77.312-14.336t56.832-39.936 34.816-61.952 11.776-79.872v-331.776h-40.448zM206.336 191.488q24.064 0 44.032 4.864t37.632 13.824 33.792 22.016 31.488 29.44v107.52q-62.976-2.048-107.264-9.984t-72.192-20.736-40.448-30.208-12.544-38.912q0-20.48 6.656-35.328t18.176-24.32 27.136-13.824 33.536-4.352zM148.48 808.96q0 21.504 8.192 38.912t22.272 30.208 32.512 19.712 38.912 6.912q20.992 0 39.68-6.912t33.024-19.712 22.528-30.208 8.192-38.912q0-20.992-8.192-38.4t-22.528-29.696-33.024-19.2-39.68-6.912q-20.48 0-38.912 6.912t-32.512 19.2-22.272 29.696-8.192 38.4zM199.68 808.96q0-22.528 13.824-36.864t37.888-14.336q23.040 0 37.12 14.336t14.080 36.864q0 23.040-14.080 37.376t-37.12 14.336q-24.064 0-37.888-14.336t-13.824-37.376z" />
<glyph unicode="&#xe6;" glyph-name="uniE6" horiz-adv-x="824" d="M584.704 662.528q41.984 0 78.336-16.384t62.976-47.616 41.984-76.032 15.36-102.144q0-20.992-4.096-28.416t-16.896-7.424h-322.56q2.048-46.592 13.824-81.152t31.488-57.6 46.592-34.304 60.16-11.264q35.328 0 58.88 7.424t39.168 16.64 25.6 16.64 18.176 7.424q7.168 0 11.52-2.304t7.424-6.4l24.064-31.232q-16.896-20.48-39.168-35.584t-47.616-24.832-52.48-14.592-53.76-4.864q-59.904 0-108.8 28.928t-77.056 88.32q-13.824-31.744-36.096-54.272t-49.408-36.864-57.6-20.736-60.672-6.4q-35.328 0-64.512 8.96t-50.432 26.88-32.768 45.056-11.52 64q0 30.72 16.896 60.416t54.528 53.248 98.56 38.656 149.504 17.152v25.6q0 60.416-26.112 92.672t-76.288 32.256q-33.792 0-56.576-8.96t-39.424-19.712-28.672-19.712-23.808-8.96q-9.216 0-15.872 4.864t-11.264 12.032l-16.384 29.184q43.008 41.472 89.344 61.952t104.192 20.48q61.44 0 98.816-26.112t54.272-72.704q27.648 45.056 71.936 71.424t106.24 26.368zM354.304 384.512q-62.976-2.56-107.264-11.52t-71.936-23.296-40.192-32.768-12.544-39.936q0-44.544 25.6-65.024t67.072-20.48q29.184 0 54.528 9.216t44.288 28.16 29.696 47.104 10.752 66.048v42.496zM581.632 595.456q-31.232 0-55.808-10.496t-42.24-30.464-28.416-48.64-14.336-64.512h261.632q0 33.28-8.192 61.696t-23.808 48.896-38.144 32-50.688 11.52z" />
<glyph unicode="&#xe7;" glyph-name="uniE7" horiz-adv-x="489" d="M216.064 6.144q3.072 0 7.168-1.792t9.984-4.096 13.824-4.096 19.2-1.792q21.504 0 32.256 8.704t10.752 22.016q0 19.456-21.504 27.392t-60.416 13.056l20.992 64q-44.544 4.096-82.176 23.808t-65.024 53.504-42.752 81.408-15.36 107.008q0 57.856 16.128 107.008t47.104 84.736 76.288 55.552 104.192 19.968q54.784 0 96.512-17.664t73.984-49.92l-24.064-32.768q-4.096-5.632-8.192-8.704t-11.264-3.072q-7.68 0-16.896 6.4t-22.784 14.080-33.28 14.080-48.384 6.4q-38.4 0-67.584-13.568t-48.896-39.168-29.696-61.952-9.984-81.408q0-47.104 10.752-83.712t30.464-61.44 47.616-37.888 62.72-13.056q33.28 0 54.784 7.936t35.584 17.664 23.552 17.664 18.688 7.936q11.264 0 17.408-8.704l25.6-33.28q-29.696-36.352-71.936-55.296t-90.88-23.040l-9.216-32.768q47.616-9.728 68.864-27.648t21.248-45.568q0-16.384-8.192-29.696t-22.784-22.528-34.816-14.080-44.8-4.864q-20.992 0-40.192 4.352t-34.56 11.52l8.192 28.16q3.072 9.216 11.776 9.216z" />
<glyph unicode="&#xe8;" glyph-name="uniE8" horiz-adv-x="541" d="M284.672 662.528q46.592 0 86.272-15.616t68.608-45.056 45.312-72.704 16.384-98.56q0-21.504-4.608-28.672t-17.408-7.168h-346.624q1.024-49.152 13.312-85.504t33.792-60.672 51.2-36.352 66.56-12.032q34.304 0 59.136 7.936t42.752 17.152 29.952 17.152 20.736 7.936q11.264 0 17.408-8.704l25.6-33.28q-16.896-20.48-40.448-35.584t-50.432-24.832-55.552-14.592-56.832-4.864q-53.76 0-99.072 18.176t-78.336 53.248-51.456 86.784-18.432 118.784q0 54.272 16.64 101.376t47.872 81.664 76.288 54.272 101.376 19.712zM286.72 595.456q-66.048 0-103.936-38.144t-47.104-105.728h283.648q0 31.744-8.96 58.112t-26.112 45.568-41.728 29.696-55.808 10.496zM235.52 877.568q16.896 0 25.088-5.376t15.36-17.152l76.288-123.904h-52.224q-10.752 0-17.408 3.328t-13.824 11.008l-119.808 132.096h86.528z" />
<glyph unicode="&#xe9;" glyph-name="uniE9" horiz-adv-x="541" d="M284.672 662.528q46.592 0 86.272-15.616t68.608-45.056 45.312-72.704 16.384-98.56q0-21.504-4.608-28.672t-17.408-7.168h-346.624q1.024-49.152 13.312-85.504t33.792-60.672 51.2-36.352 66.56-12.032q34.304 0 59.136 7.936t42.752 17.152 29.952 17.152 20.736 7.936q11.264 0 17.408-8.704l25.6-33.28q-16.896-20.48-40.448-35.584t-50.432-24.832-55.552-14.592-56.832-4.864q-53.76 0-99.072 18.176t-78.336 53.248-51.456 86.784-18.432 118.784q0 54.272 16.64 101.376t47.872 81.664 76.288 54.272 101.376 19.712zM286.72 595.456q-66.048 0-103.936-38.144t-47.104-105.728h283.648q0 31.744-8.96 58.112t-26.112 45.568-41.728 29.696-55.808 10.496zM435.712 877.568l-119.296-132.096q-7.168-7.68-14.080-11.008t-17.664-3.328h-54.272l75.776 123.904q7.168 11.776 15.616 17.152t24.832 5.376h89.088z" />
<glyph unicode="&#xea;" glyph-name="uniEA" horiz-adv-x="541" d="M284.672 662.528q46.592 0 86.272-15.616t68.608-45.056 45.312-72.704 16.384-98.56q0-21.504-4.608-28.672t-17.408-7.168h-346.624q1.024-49.152 13.312-85.504t33.792-60.672 51.2-36.352 66.56-12.032q34.304 0 59.136 7.936t42.752 17.152 29.952 17.152 20.736 7.936q11.264 0 17.408-8.704l25.6-33.28q-16.896-20.48-40.448-35.584t-50.432-24.832-55.552-14.592-56.832-4.864q-53.76 0-99.072 18.176t-78.336 53.248-51.456 86.784-18.432 118.784q0 54.272 16.64 101.376t47.872 81.664 76.288 54.272 101.376 19.712zM286.72 595.456q-66.048 0-103.936-38.144t-47.104-105.728h283.648q0 31.744-8.96 58.112t-26.112 45.568-41.728 29.696-55.808 10.496zM443.392 734.208h-60.928q-5.632 0-11.52 2.048t-11.52 7.68l-62.976 67.584q-2.56 2.048-4.352 4.608t-4.352 5.12q-4.096-5.632-8.192-9.728l-63.488-67.584q-10.752-9.728-23.040-9.728h-62.976l114.176 135.168h84.992z" />
<glyph unicode="&#xeb;" glyph-name="uniEB" horiz-adv-x="541" d="M284.672 662.528q46.592 0 86.272-15.616t68.608-45.056 45.312-72.704 16.384-98.56q0-21.504-4.608-28.672t-17.408-7.168h-346.624q1.024-49.152 13.312-85.504t33.792-60.672 51.2-36.352 66.56-12.032q34.304 0 59.136 7.936t42.752 17.152 29.952 17.152 20.736 7.936q11.264 0 17.408-8.704l25.6-33.28q-16.896-20.48-40.448-35.584t-50.432-24.832-55.552-14.592-56.832-4.864q-53.76 0-99.072 18.176t-78.336 53.248-51.456 86.784-18.432 118.784q0 54.272 16.64 101.376t47.872 81.664 76.288 54.272 101.376 19.712zM286.72 595.456q-66.048 0-103.936-38.144t-47.104-105.728h283.648q0 31.744-8.96 58.112t-26.112 45.568-41.728 29.696-55.808 10.496zM246.784 795.648q0-11.776-4.608-22.016t-12.8-17.92-18.688-12.288-22.272-4.608q-11.264 0-21.504 4.608t-18.176 12.288-12.544 17.92-4.608 22.016 4.608 22.528 12.544 18.688 18.176 12.544 21.504 4.608q11.776 0 22.272-4.608t18.688-12.544 12.8-18.688 4.608-22.528zM441.856 795.648q0-11.776-4.608-22.016t-12.544-17.92-18.432-12.288-22.272-4.608-22.272 4.608-18.176 12.288-12.288 17.92-4.608 22.016 4.608 22.528 12.288 18.688 18.176 12.544 22.272 4.608 22.272-4.608 18.432-12.544 12.544-18.688 4.608-22.528z" />
<glyph unicode="&#xec;" glyph-name="uniEC" horiz-adv-x="246" d="M168.448 654.336v-518.656h-91.648v518.656h91.648zM74.24 877.568q16.896 0 25.088-5.376t15.36-17.152l76.288-123.904h-52.224q-10.752 0-17.408 3.328t-13.824 11.008l-119.808 132.096h86.528z" />
<glyph unicode="&#xed;" glyph-name="uniED" horiz-adv-x="246" d="M168.96 654.336v-518.656h-91.648v518.656h91.648zM274.432 877.568l-119.296-132.096q-7.168-7.68-14.080-11.008t-17.664-3.328h-54.272l75.776 123.904q7.168 11.776 15.616 17.152t24.832 5.376h89.088z" />
<glyph unicode="&#xee;" glyph-name="uniEE" horiz-adv-x="246" d="M168.448 654.336v-518.656h-91.648v518.656h91.648zM282.112 734.208h-60.928q-5.632 0-11.52 2.048t-11.52 7.68l-62.976 67.584q-2.56 2.048-4.352 4.608t-4.352 5.12q-4.096-5.632-8.192-9.728l-63.488-67.584q-10.752-9.728-23.040-9.728h-62.976l114.176 135.168h84.992z" />
<glyph unicode="&#xef;" glyph-name="uniEF" horiz-adv-x="246" d="M168.448 654.336v-518.656h-91.648v518.656h91.648zM103.424 795.648q0-11.776-4.608-22.016t-12.8-17.92-18.688-12.288-22.272-4.608-22.016 4.608-18.176 12.288-12.544 17.92-4.608 22.016 4.608 22.528 12.544 18.688 18.176 12.544 22.016 4.608 22.272-4.608 18.688-12.544 12.8-18.688 4.608-22.528zM263.168 795.648q0-11.776-4.608-22.016t-12.544-17.92-18.688-12.288-22.528-4.608-22.272 4.608-18.176 12.288-12.288 17.92-4.608 22.016 4.608 22.528 12.288 18.688 18.176 12.544 22.272 4.608 22.528-4.608 18.688-12.544 12.544-18.688 4.608-22.528z" />
<glyph unicode="&#xf0;" glyph-name="uniF0" horiz-adv-x="580" d="M216.576 680.96q-6.144 9.216-4.096 17.92t11.264 14.336l52.736 36.864q-23.040 10.24-48.896 18.688t-55.040 15.616q-11.776 3.584-18.944 14.336t-0.512 29.184l10.24 31.744q49.152-8.192 95.488-23.552t87.808-39.936l84.992 62.464 17.92-29.184q5.632-8.704 3.584-17.152t-10.752-14.080l-49.664-34.304q30.72-25.088 56.064-56.832t43.264-71.424 27.904-87.040 9.984-103.68q0-73.216-15.872-131.584t-47.36-99.328-78.336-62.976-108.288-22.016q-50.176 0-93.44 16.896t-75.52 48.384-50.688 77.056-18.432 102.912q0 48.128 15.872 90.88t45.568 75.008 71.936 51.2 95.488 18.944q51.712 0 97.024-22.016t78.080-66.56q-10.24 69.632-40.192 118.272t-78.080 81.408l-94.208-69.12zM282.112 199.68q36.352 0 65.792 13.824t50.176 41.728 32.512 70.144 13.312 99.072q-8.192 22.016-21.504 42.752t-32.256 36.864-44.288 25.6-57.088 9.472q-38.4 0-67.584-12.8t-48.64-35.072-29.44-52.736-9.984-65.28q0-41.472 11.776-73.984t32.256-54.528 47.36-33.536 57.6-11.52z" />
</font>
</defs>
</svg>
